<svg width="1280" height="720" xmlns="http://www.w3.org/2000/svg" xmlns:xlink="http://www.w3.org/1999/xlink" overflow="hidden"><g><rect x="0" y="0" width="1280" height="720" fill="#FFFFFF"/><rect x="0" y="0" width="396" height="720" fill="#DFE3F4" fill-opacity="0.501961"/><rect x="394" y="0" width="578" height="720" fill="#E0EDE9" fill-opacity="0.501961"/><rect x="972" y="0" width="308" height="720" fill="#F8EAE0" fill-opacity="0.501961"/><text font-family="Verdana,Verdana_MSFontService,sans-serif" font-weight="700" font-size="32" transform="translate(601.395 40)">transport</text><text font-family="Verdana,Verdana_MSFontService,sans-serif" font-weight="700" font-size="32" transform="translate(114.314 40)">data</text><text font-family="Verdana,Verdana_MSFontService,sans-serif" font-weight="700" font-size="32" transform="translate(1047.19 39)">visualize</text><path d="M119 115.334C119 95.8196 134.82 80 154.334 80L295.666 80C315.18 80 331 95.8196 331 115.334L331 438.666C331 458.18 315.18 474 295.666 474L154.334 474C134.82 474 119 458.18 119 438.666Z" fill="#B0B9E4" fill-rule="evenodd" fill-opacity="0.501961"/><text font-family="Verdana,Verdana_MSFontService,sans-serif" font-weight="400" font-size="21.3333" transform="translate(163.789 114)">parameters</text><path d="M166.5 144.667C166.5 137.947 171.947 132.5 178.667 132.5L272.333 132.5C279.053 132.5 284.5 137.947 284.5 144.667L284.5 193.333C284.5 200.053 279.053 205.5 272.333 205.5L178.667 205.5C171.947 205.5 166.5 200.053 166.5 193.333Z" stroke="#6172CA" stroke-width="2.66667" stroke-linejoin="round" stroke-miterlimit="10" fill="#B0B9E4" fill-rule="evenodd"/><text fill="#FFFFFF" font-family="Verdana,Verdana_MSFontService,sans-serif" font-weight="400" font-size="16" transform="translate(175.809 166)">Hydrological</text><text fill="#FFFFFF" font-family="Verdana,Verdana_MSFontService,sans-serif" font-weight="400" font-size="16" transform="translate(179.523 185)">Parameters</text><path d="M166.5 226.667C166.5 219.947 171.947 214.5 178.667 214.5L272.333 214.5C279.053 214.5 284.5 219.947 284.5 226.667L284.5 275.333C284.5 282.053 279.053 287.5 272.333 287.5L178.667 287.5C171.947 287.5 166.5 282.053 166.5 275.333Z" stroke="#6172CA" stroke-width="2.66667" stroke-linejoin="round" stroke-miterlimit="10" fill="#B0B9E4" fill-rule="evenodd"/><text fill="#FFFFFF" font-family="Verdana,Verdana_MSFontService,sans-serif" font-weight="400" font-size="16" transform="translate(178.346 247)">Attenuation</text><text fill="#FFFFFF" font-family="Verdana,Verdana_MSFontService,sans-serif" font-weight="400" font-size="16" transform="translate(179.519 266)">Parameters</text><path d="M166.5 307.667C166.5 300.947 171.947 295.5 178.667 295.5L272.333 295.5C279.053 295.5 284.5 300.947 284.5 307.667L284.5 356.333C284.5 363.053 279.053 368.5 272.333 368.5L178.667 368.5C171.947 368.5 166.5 363.053 166.5 356.333Z" stroke="#6172CA" stroke-width="2.66667" stroke-linejoin="round" stroke-miterlimit="10" fill="#B0B9E4" fill-rule="evenodd"/><text fill="#FFFFFF" font-family="Verdana,Verdana_MSFontService,sans-serif" font-weight="400" font-size="16" transform="translate(197.356 329)">Source</text><text fill="#FFFFFF" font-family="Verdana,Verdana_MSFontService,sans-serif" font-weight="400" font-size="16" transform="translate(179.523 348)">Parameters</text><path d="M166.5 389.667C166.5 382.947 171.947 377.5 178.667 377.5L272.333 377.5C279.053 377.5 284.5 382.947 284.5 389.667L284.5 438.333C284.5 445.053 279.053 450.5 272.333 450.5L178.667 450.5C171.947 450.5 166.5 445.053 166.5 438.333Z" stroke="#6172CA" stroke-width="2.66667" stroke-linejoin="round" stroke-miterlimit="10" fill="#B0B9E4" fill-rule="evenodd"/><text fill="#FFFFFF" font-family="Verdana,Verdana_MSFontService,sans-serif" font-weight="400" font-size="16" transform="translate(201.603 410)">Model</text><text fill="#FFFFFF" font-family="Verdana,Verdana_MSFontService,sans-serif" font-weight="400" font-size="16" transform="translate(179.523 429)">Parameters</text><path d="M689 162.834C689 140.282 707.282 122 729.834 122L893.166 122C915.718 122 934 140.282 934 162.834L934 409.166C934 431.718 915.718 450 893.166 450L729.834 450C707.282 450 689 431.718 689 409.166Z" fill="#C1DBD4" fill-rule="evenodd" fill-opacity="0.501961"/><text font-family="Verdana,Verdana_MSFontService,sans-serif" font-weight="400" font-size="21.3333" transform="translate(738.161 148)">model_parent</text><path d="M742.5 184.334C742.5 176.141 749.141 169.5 757.334 169.5L864.667 169.5C872.859 169.5 879.5 176.141 879.5 184.334L879.5 243.666C879.5 251.859 872.859 258.5 864.667 258.5L757.334 258.5C749.141 258.5 742.5 251.859 742.5 243.666Z" stroke="#487E6F" stroke-width="2.66667" stroke-linejoin="round" stroke-miterlimit="10" fill="#A1C9BE" fill-rule="evenodd"/><text fill="#FFFFFF" font-family="Verdana,Verdana_MSFontService,sans-serif" font-weight="400" font-size="16" transform="translate(760.987 220)">Transport3D</text><path d="M435 158.001C435 138.118 451.118 122 471.001 122L614.999 122C634.882 122 651 138.118 651 158.001L651 566.999C651 586.882 634.882 603 614.999 603L471.001 603C451.118 603 435 586.882 435 566.999Z" fill="#C1DBD4" fill-rule="evenodd" fill-opacity="0.501961"/><text font-family="Verdana,Verdana_MSFontService,sans-serif" font-weight="400" font-size="21.3333" transform="translate(500.378 148)">models</text><path d="M491.5 208.667C491.5 201.947 496.947 196.5 503.667 196.5L582.333 196.5C589.053 196.5 594.5 201.947 594.5 208.667L594.5 257.333C594.5 264.053 589.053 269.5 582.333 269.5L503.667 269.5C496.947 269.5 491.5 264.053 491.5 257.333Z" stroke="#487E6F" stroke-width="2.66667" stroke-linejoin="round" stroke-miterlimit="10" fill="#A1C9BE" fill-rule="evenodd"/><text fill="#FFFFFF" font-family="Verdana,Verdana_MSFontService,sans-serif" font-weight="400" font-size="16" transform="translate(506.101 239)">Mibitrans</text><path d="M492.5 338.667C492.5 331.947 497.947 326.5 504.667 326.5L582.333 326.5C589.053 326.5 594.5 331.947 594.5 338.667L594.5 387.333C594.5 394.053 589.053 399.5 582.333 399.5L504.667 399.5C497.947 399.5 492.5 394.053 492.5 387.333Z" stroke="#487E6F" stroke-width="2.66667" stroke-linejoin="round" stroke-miterlimit="10" fill="#A1C9BE" fill-rule="evenodd"/><text fill="#FFFFFF" font-family="Verdana,Verdana_MSFontService,sans-serif" font-weight="400" font-size="16" transform="translate(506.911 369)">Anatrans</text><path d="M492.5 467.667C492.5 460.947 497.947 455.5 504.667 455.5L582.333 455.5C589.053 455.5 594.5 460.947 594.5 467.667L594.5 516.333C594.5 523.053 589.053 528.5 582.333 528.5L504.667 528.5C497.947 528.5 492.5 523.053 492.5 516.333Z" stroke="#487E6F" stroke-width="2.66667" stroke-linejoin="round" stroke-miterlimit="10" fill="#A1C9BE" fill-rule="evenodd"/><text fill="#FFFFFF" font-family="Verdana,Verdana_MSFontService,sans-serif" font-weight="400" font-size="16" transform="translate(504.057 498)">Bioscreen</text><path d="M62 566.5C62 557.387 69.3874 550 78.5003 550L202.5 550C211.613 550 219 557.387 219 566.5L219 632.5C219 641.613 211.613 649 202.5 649L78.5003 649C69.3874 649 62 641.613 62 632.5Z" fill="#B0B9E4" fill-rule="evenodd" fill-opacity="0.501961"/><text font-family="Verdana,Verdana_MSFontService,sans-serif" font-weight="400" font-size="21.3333" transform="translate(76.1674 604)">check_input</text><path d="M997 101.834C997 77.6253 1016.63 58 1040.83 58L1216.17 58C1240.37 58 1260 77.6253 1260 101.834L1260 300.166C1260 324.375 1240.37 344 1216.17 344L1040.83 344C1016.63 344 997 324.375 997 300.166Z" fill="#F1D5C0" fill-rule="evenodd" fill-opacity="0.501961"/><text font-family="Verdana,Verdana_MSFontService,sans-serif" font-weight="400" font-size="21.3333" transform="translate(1081.93 86)">plot_line</text><path d="M997 385.001C997 366.775 1011.77 352 1030 352L1227 352C1245.23 352 1260 366.775 1260 385.001L1260 516.999C1260 535.225 1245.23 550 1227 550L1030 550C1011.77 550 997 535.225 997 516.999Z" fill="#F1D5C0" fill-rule="evenodd" fill-opacity="0.501961"/><text font-family="Verdana,Verdana_MSFontService,sans-serif" font-weight="400" font-size="21.3333" transform="translate(1062.68 377)">plot_surface</text><path d="M1074.5 397.667C1074.5 390.947 1079.95 385.5 1086.67 385.5L1165.33 385.5C1172.05 385.5 1177.5 390.947 1177.5 397.667L1177.5 446.333C1177.5 453.053 1172.05 458.5 1165.33 458.5L1086.67 458.5C1079.95 458.5 1074.5 453.053 1074.5 446.333Z" stroke="#C56A2B" stroke-width="2.66667" stroke-linejoin="round" stroke-miterlimit="10" fill="#EBBFA1" fill-rule="evenodd"/><text fill="#FFFFFF" font-family="Verdana,Verdana_MSFontService,sans-serif" font-weight="400" font-size="16" transform="translate(1085.72 428)">plume_2d</text><path d="M1074.5 477.5C1074.5 470.873 1079.87 465.5 1086.5 465.5L1165.5 465.5C1172.13 465.5 1177.5 470.873 1177.5 477.5L1177.5 525.5C1177.5 532.127 1172.13 537.5 1165.5 537.5L1086.5 537.5C1079.87 537.5 1074.5 532.127 1074.5 525.5Z" stroke="#C56A2B" stroke-width="2.66667" stroke-linejoin="round" stroke-miterlimit="10" fill="#EBBFA1" fill-rule="evenodd"/><text fill="#FFFFFF" font-family="Verdana,Verdana_MSFontService,sans-serif" font-weight="400" font-size="16" transform="translate(1085.72 507)">plume_3d</text><path d="M1077.5 111.667C1077.5 104.947 1082.95 99.5001 1089.67 99.5001L1168.33 99.5001C1175.05 99.5001 1180.5 104.947 1180.5 111.667L1180.5 160.333C1180.5 167.053 1175.05 172.5 1168.33 172.5L1089.67 172.5C1082.95 172.5 1077.5 167.053 1077.5 160.333Z" stroke="#C56A2B" stroke-width="2.66667" stroke-linejoin="round" stroke-miterlimit="10" fill="#EBBFA1" fill-rule="evenodd"/><text fill="#FFFFFF" font-family="Verdana,Verdana_MSFontService,sans-serif" font-weight="400" font-size="16" transform="translate(1089.18 142)">centerline</text><text font-family="Verdana,Verdana_MSFontService,sans-serif" font-style="italic" font-weight="400" font-size="16" transform="translate(42.5839 151)">flow</text><text font-family="Verdana,Verdana_MSFontService,sans-serif" font-style="italic" font-weight="400" font-size="16" transform="translate(26.6639 170)">porosity</text><text font-family="Verdana,Verdana_MSFontService,sans-serif" font-style="italic" font-weight="400" font-size="16" transform="translate(13.3306 189)">dispersivity</text><text font-family="Verdana,Verdana_MSFontService,sans-serif" font-style="italic" font-weight="400" font-size="16" transform="translate(24.8306 208)">diffusion</text><text font-family="Verdana,Verdana_MSFontService,sans-serif" font-style="italic" font-weight="400" font-size="16" transform="translate(15.0256 252)">retardation</text><text font-family="Verdana,Verdana_MSFontService,sans-serif" font-style="italic" font-weight="400" font-size="16" transform="translate(36.1922 271)">decay</text><text font-family="Verdana,Verdana_MSFontService,sans-serif" font-style="italic" font-weight="400" font-size="16" transform="translate(27.6139 315)">Source:</text><text font-family="Verdana,Verdana_MSFontService,sans-serif" font-style="italic" font-weight="400" font-size="16" transform="translate(13.8605 334)">dimensions</text><text font-family="Verdana,Verdana_MSFontService,sans-serif" font-style="italic" font-weight="400" font-size="16" transform="translate(4.28053 353)">concentration</text><text font-family="Verdana,Verdana_MSFontService,sans-serif" font-style="italic" font-weight="400" font-size="16" transform="translate(38.1139 372)">mass</text><path d="M0.019692-1.9999 42.9695-1.577 42.9301 2.42281-0.019692 1.9999ZM41.0089-5.5965 52.9493 0.521365 40.8908 6.40292Z" fill="#FFC000" transform="matrix(1 0 0 -1 113 412.521)"/><text font-family="Verdana,Verdana_MSFontService,sans-serif" font-style="italic" font-weight="400" font-size="16" transform="translate(31.8272 399)">Model:</text><text font-family="Verdana,Verdana_MSFontService,sans-serif" font-style="italic" font-weight="400" font-size="16" transform="translate(13.8272 418)">dimensions</text><text font-family="Verdana,Verdana_MSFontService,sans-serif" font-style="italic" font-weight="400" font-size="16" transform="translate(5.74724 437)">discretization</text><path d="M0.019692-1.9999 42.9695-1.577 42.9301 2.42281-0.019692 1.9999ZM41.0089-5.5965 52.9493 0.521365 40.8908 6.40292Z" fill="#FFC000" transform="matrix(1 0 0 -1 113 334.521)"/><path d="M0.019692-1.9999 42.9695-1.577 42.9301 2.42281-0.019692 1.9999ZM41.0089-5.5965 52.9493 0.521365 40.8908 6.40292Z" fill="#FFC000" transform="matrix(1 0 0 -1 112 254.521)"/><path d="M0.019692-1.9999 42.9695-1.577 42.9301 2.42281-0.019692 1.9999ZM41.0089-5.5965 52.9493 0.521365 40.8908 6.40292Z" fill="#FFC000" transform="matrix(1 0 0 -1 112 171.521)"/><path d="M743.5 333.334C743.5 325.141 750.141 318.5 758.334 318.5L865.667 318.5C873.859 318.5 880.5 325.141 880.5 333.334L880.5 392.666C880.5 400.859 873.859 407.5 865.667 407.5L758.334 407.5C750.141 407.5 743.5 400.859 743.5 392.666Z" stroke="#487E6F" stroke-width="2.66667" stroke-linejoin="round" stroke-miterlimit="10" fill="#A1C9BE" fill-rule="evenodd"/><text fill="#FFFFFF" font-family="Verdana,Verdana_MSFontService,sans-serif" font-weight="400" font-size="16" transform="translate(782.742 369)">Results</text><path d="M741.642 214.94 603.987 214.064 604.013 210.064 741.668 210.94ZM605.962 218.076 594 212 606.038 206.077Z" fill="#A1C9BE"/><path d="M0-2 66.1613-2C67.2659-2 68.1613-1.10457 68.1613 0L68.1613 130.444 66.1613 128.444 137.655 128.444 137.655 132.444 66.1613 132.444C65.0567 132.444 64.1613 131.549 64.1613 130.444L64.1613 0 66.1613 2 0 2ZM135.655 124.444 147.655 130.444 135.655 136.444Z" fill="#A1C9BE" transform="matrix(-1 1.22465e-16 1.22465e-16 1 741.655 213)"/><path d="M0.00216082-2 138.871-1.84996 138.867 2.15003-0.00216082 2ZM136.876-5.85212 148.869 0.16084 136.863 6.14787Z" transform="matrix(1 0 0 -1 594 362.161)"/><path d="M594 231 662.173 231C663.278 231 664.173 231.895 664.173 233L664.173 362.303 662.173 360.303 733.012 360.303 733.012 364.303 662.173 364.303C661.069 364.303 660.173 363.408 660.173 362.303L660.173 233 662.173 235 594 235ZM731.012 356.303 743.012 362.303 731.012 368.303Z"/><path d="M412 362.862 412 233C412 231.895 412.895 231 414 231L481.452 231 481.452 235 414 235 416 233 416 362.862ZM479.452 227 491.452 233 479.452 239Z"/><path d="M0-2 129.072-2C130.177-2 131.072-1.10457 131.072 0L131.072 67.6308 127.072 67.6308 127.072 0 129.072 2 0 2ZM135.072 65.6308 129.072 77.6308 123.072 65.6308Z" transform="matrix(1.83697e-16 1 1 -1.83697e-16 414 362)"/><path d="M0-2 83.4805-2C84.585-2 85.4805-1.10457 85.4805 0L85.4805 161.427 83.4805 159.427 106.96 159.427 106.96 163.427 83.4805 163.427C82.3759 163.427 81.4805 162.532 81.4805 161.427L81.4805 0 83.4805 2 0 2ZM104.96 155.427 116.96 161.427 104.96 167.427Z" transform="matrix(1 0 0 -1 880 362.427)"/><path d="M880 360 963.48 360C964.585 360 965.48 360.895 965.48 362L965.48 451.146 963.48 449.146 986.96 449.146 986.96 453.146 963.48 453.146C962.376 453.146 961.48 452.25 961.48 451.146L961.48 362 963.48 364 880 364ZM984.96 445.146 996.96 451.146 984.96 457.146Z"/><path d="M1058.5 273.667C1058.5 266.947 1063.95 261.5 1070.67 261.5L1191.33 261.5C1198.05 261.5 1203.5 266.947 1203.5 273.667L1203.5 322.333C1203.5 329.053 1198.05 334.5 1191.33 334.5L1070.67 334.5C1063.95 334.5 1058.5 329.053 1058.5 322.333Z" stroke="#C56A2B" stroke-width="2.66667" stroke-linejoin="round" stroke-miterlimit="10" fill="#EBBFA1" fill-rule="evenodd"/><text fill="#FFFFFF" font-family="Verdana,Verdana_MSFontService,sans-serif" font-weight="400" font-size="16" transform="translate(1076.1 304)">breakthrough</text><path d="M1077.5 193.667C1077.5 186.947 1082.95 181.5 1089.67 181.5L1167.33 181.5C1174.05 181.5 1179.5 186.947 1179.5 193.667L1179.5 242.333C1179.5 249.053 1174.05 254.5 1167.33 254.5L1089.67 254.5C1082.95 254.5 1077.5 249.053 1077.5 242.333Z" stroke="#C56A2B" stroke-width="2.66667" stroke-linejoin="round" stroke-miterlimit="10" fill="#EBBFA1" fill-rule="evenodd"/><text fill="#FFFFFF" font-family="Verdana,Verdana_MSFontService,sans-serif" font-weight="400" font-size="16" transform="translate(1085.56 224)">transverse</text><path d="M688 526.001C688 512.193 699.193 501 713 501L908 501C921.807 501 933 512.193 933 526.001L933 625.999C933 639.807 921.807 651 908 651L713 651C699.193 651 688 639.807 688 625.999Z" fill="#C1DBD4" fill-rule="evenodd" fill-opacity="0.501961"/><path d="M743.5 536.334C743.5 528.141 750.141 521.5 758.334 521.5L865.667 521.5C873.859 521.5 880.5 528.141 880.5 536.334L880.5 595.667C880.5 603.859 873.859 610.5 865.667 610.5L758.334 610.5C750.141 610.5 743.5 603.859 743.5 595.667Z" stroke="#487E6F" stroke-width="2.66667" stroke-linejoin="round" stroke-miterlimit="10" fill="#A1C9BE" fill-rule="evenodd"/><text fill="#FFFFFF" font-family="Verdana,Verdana_MSFontService,sans-serif" font-weight="400" font-size="16" transform="translate(760.104 572)">MassBalance</text><path d="M1.99999-0.00480582 2.25051 104.248-1.74948 104.258-1.99999 0.00480582ZM6.24569 102.239 0.274541 114.253-5.75428 102.267Z" transform="matrix(-1 0 0 1 811.275 407)"/><text font-family="Verdana,Verdana_MSFontService,sans-serif" font-weight="400" font-size="21.3333" transform="translate(734.317 635)">mass_balance</text><path d="M138 152 138 550.096" stroke="#900728" stroke-width="4" stroke-linejoin="round" stroke-miterlimit="10" fill="none" fill-rule="evenodd"/><path d="M363 360 481.598 360 481.598 364 363 364ZM479.598 356 491.598 362 479.598 368Z"/><path d="M284 169 365.114 169 365.114 362.508" stroke="#000000" stroke-width="4" stroke-linejoin="round" stroke-miterlimit="10" fill="none" fill-rule="evenodd"/><path d="M284 250 362.911 250" stroke="#000000" stroke-width="4" stroke-linejoin="round" stroke-miterlimit="10" fill="none" fill-rule="evenodd"/><path d="M284 332 365.114 332" stroke="#000000" stroke-width="4" stroke-linejoin="round" stroke-miterlimit="10" fill="none" fill-rule="evenodd"/><path d="M677.691 344 677.691 474.417C677.691 475.522 676.795 476.417 675.69 476.417L604.999 476.403 605 472.403 675.691 472.417 673.691 474.417 673.691 344ZM606.958 480.417 595 474.334 607.041 468.417Z" fill="#A1C9BE"/><path d="M0-2 68.4174-2C69.5219-2 70.4174-1.10457 70.4174 0L70.4174 129.153 68.4174 127.153 138.834 127.153 138.834 131.153 68.4174 131.153C67.3128 131.153 66.4174 130.257 66.4174 129.153L66.4174 0 68.4174 2 0 2ZM136.834 123.153 148.834 129.153 136.834 135.153Z" transform="matrix(1 0 0 -1 594 491.153)"/><path d="M707.5 247.167C707.5 241.828 711.828 237.5 717.167 237.5L778.833 237.5C784.172 237.5 788.5 241.828 788.5 247.167L788.5 285.833C788.5 291.172 784.172 295.5 778.833 295.5L717.167 295.5C711.828 295.5 707.5 291.172 707.5 285.833Z" stroke="#487E6F" stroke-width="2.66667" stroke-linejoin="round" stroke-miterlimit="10" fill="#A1C9BE" fill-rule="evenodd"/><text fill="#FFFFFF" font-family="Verdana,Verdana_MSFontService,sans-serif" font-weight="400" font-size="16" transform="translate(725.145 263)">linear</text><text fill="#FFFFFF" font-family="Verdana,Verdana_MSFontService,sans-serif" font-weight="400" font-size="16" transform="translate(724.125 282)">decay</text><path d="M829.5 247.167C829.5 241.828 833.828 237.5 839.167 237.5L900.833 237.5C906.172 237.5 910.5 241.828 910.5 247.167L910.5 285.833C910.5 291.172 906.172 295.5 900.833 295.5L839.167 295.5C833.828 295.5 829.5 291.172 829.5 285.833Z" stroke="#487E6F" stroke-width="2.66667" stroke-linejoin="round" stroke-miterlimit="10" fill="#A1C9BE" fill-rule="evenodd"/><text fill="#FFFFFF" font-family="Verdana,Verdana_MSFontService,sans-serif" font-weight="400" font-size="16" transform="translate(841.971 263)">instant</text><text fill="#FFFFFF" font-family="Verdana,Verdana_MSFontService,sans-serif" font-weight="400" font-size="16" transform="translate(837.218 282)">reaction</text><path d="M995 582.167C995 569.372 1005.37 559 1018.17 559L1234.83 559C1247.63 559 1258 569.372 1258 582.167L1258 674.833C1258 687.628 1247.63 698 1234.83 698L1018.17 698C1005.37 698 995 687.628 995 674.833Z" fill="#F1D5C0" fill-rule="evenodd" fill-opacity="0.501961"/><text font-family="Verdana,Verdana_MSFontService,sans-serif" font-weight="400" font-size="21.3333" transform="translate(1045.95 583)">show conditions</text><path d="M1013.5 617.667C1013.5 610.947 1018.95 605.5 1025.67 605.5L1103.33 605.5C1110.05 605.5 1115.5 610.947 1115.5 617.667L1115.5 666.333C1115.5 673.053 1110.05 678.5 1103.33 678.5L1025.67 678.5C1018.95 678.5 1013.5 673.053 1013.5 666.333Z" stroke="#C56A2B" stroke-width="2.66667" stroke-linejoin="round" stroke-miterlimit="10" fill="#EBBFA1" fill-rule="evenodd"/><text fill="#FFFFFF" font-family="Verdana,Verdana_MSFontService,sans-serif" font-weight="400" font-size="16" transform="translate(1032.44 638)">source_</text><text fill="#FFFFFF" font-family="Verdana,Verdana_MSFontService,sans-serif" font-weight="400" font-size="16" transform="translate(1045.15 657)">zone</text><path d="M1137.5 617.667C1137.5 610.947 1142.95 605.5 1149.67 605.5L1228.33 605.5C1235.05 605.5 1240.5 610.947 1240.5 617.667L1240.5 666.333C1240.5 673.053 1235.05 678.5 1228.33 678.5L1149.67 678.5C1142.95 678.5 1137.5 673.053 1137.5 666.333Z" stroke="#C56A2B" stroke-width="2.66667" stroke-linejoin="round" stroke-miterlimit="10" fill="#EBBFA1" fill-rule="evenodd"/><text fill="#FFFFFF" font-family="Verdana,Verdana_MSFontService,sans-serif" font-weight="400" font-size="16" transform="translate(1157.2 638)">source_</text><text fill="#FFFFFF" font-family="Verdana,Verdana_MSFontService,sans-serif" font-weight="400" font-size="16" transform="translate(1151.79 657)">depletion</text><path d="M285 343 297 343 297 347 285 347ZM301 343 313 343 313 347 301 347ZM317 343 329 343 329 347 317 347ZM333 343 345 343 345 347 333 347ZM349.641 346.359 349.641 358.359 345.641 358.359 345.641 346.359ZM349.641 362.359 349.641 374.359 345.641 374.359 345.641 362.359ZM349.641 378.359 349.641 390.359 345.641 390.359 345.641 378.359ZM349.641 394.359 349.641 406.359 345.641 406.359 345.641 394.359ZM349.641 410.359 349.641 422.359 345.641 422.359 345.641 410.359ZM349.641 426.359 349.641 438.359 345.641 438.359 345.641 426.359ZM349.641 442.359 349.641 454.359 345.641 454.359 345.641 442.359ZM349.641 458.359 349.641 470.359 345.641 470.359 345.641 458.359ZM349.641 474.359 349.641 486.359 345.641 486.359 345.641 474.359ZM349.641 490.359 349.641 502.359 345.641 502.359 345.641 490.359ZM349.641 506.359 349.641 518.359 345.641 518.359 345.641 506.359ZM349.641 522.359 349.641 534.359 345.641 534.359 345.641 522.359ZM349.641 538.359 349.641 550.359 345.641 550.359 345.641 538.359ZM349.641 554.359 349.641 566.359 345.641 566.359 345.641 554.359ZM349.641 570.359 349.641 582.359 345.641 582.359 345.641 570.359ZM349.641 586.359 349.641 598.359 345.641 598.359 345.641 586.359ZM349.641 602.359 349.641 614.359 345.641 614.359 345.641 602.359ZM349.641 618.359 349.641 630.359 345.641 630.359 345.641 618.359ZM349.641 634.359 349.641 646.359 345.641 646.359 345.641 634.359ZM349.641 650.359 349.641 662.359 345.641 662.359 345.641 650.359ZM349.641 666.359 349.641 671.949 347.641 669.949 354.051 669.949 354.051 673.949 347.641 673.949C346.536 673.949 345.641 673.054 345.641 671.949L345.641 666.359ZM358.051 669.949 370.051 669.949 370.051 673.949 358.051 673.949ZM374.051 669.949 386.051 669.949 386.051 673.949 374.051 673.949ZM390.051 669.949 402.051 669.949 402.051 673.949 390.051 673.949ZM406.051 669.949 418.051 669.949 418.051 673.949 406.051 673.949ZM422.051 669.949 434.051 669.949 434.051 673.949 422.051 673.949ZM438.051 669.949 450.051 669.949 450.051 673.949 438.051 673.949ZM454.051 669.949 466.051 669.949 466.051 673.949 454.051 673.949ZM470.051 669.949 482.051 669.949 482.051 673.949 470.051 673.949ZM486.051 669.949 498.051 669.949 498.051 673.949 486.051 673.949ZM502.051 669.949 514.051 669.949 514.051 673.949 502.051 673.949ZM518.051 669.949 530.051 669.949 530.051 673.949 518.051 673.949ZM534.051 669.949 546.051 669.949 546.051 673.949 534.051 673.949ZM550.051 669.949 562.051 669.949 562.051 673.949 550.051 673.949ZM566.051 669.949 578.051 669.949 578.051 673.949 566.051 673.949ZM582.051 669.949 594.051 669.949 594.051 673.949 582.051 673.949ZM598.051 669.949 610.051 669.949 610.051 673.949 598.051 673.949ZM614.051 669.949 626.051 669.949 626.051 673.949 614.051 673.949ZM630.051 669.949 642.051 669.949 642.051 673.949 630.051 673.949ZM646.051 669.949 658.051 669.949 658.051 673.949 646.051 673.949ZM662.051 669.949 674.051 669.949 674.051 673.949 662.051 673.949ZM678.051 669.949 690.051 669.949 690.051 673.949 678.051 673.949ZM694.051 669.949 706.051 669.949 706.051 673.949 694.051 673.949ZM710.051 669.949 722.051 669.949 722.051 673.949 710.051 673.949ZM726.051 669.949 738.051 669.949 738.051 673.949 726.051 673.949ZM742.051 669.949 754.051 669.949 754.051 673.949 742.051 673.949ZM758.051 669.949 770.051 669.949 770.051 673.949 758.051 673.949ZM774.051 669.949 786.051 669.949 786.051 673.949 774.051 673.949ZM790.051 669.949 802.051 669.949 802.051 673.949 790.051 673.949ZM806.051 669.949 818.051 669.949 818.051 673.949 806.051 673.949ZM822.051 669.949 834.051 669.949 834.051 673.949 822.051 673.949ZM838.051 669.949 850.051 669.949 850.051 673.949 838.051 673.949ZM854.051 669.949 866.051 669.949 866.051 673.949 854.051 673.949ZM870.051 669.949 882.051 669.949 882.051 673.949 870.051 673.949ZM886.051 669.949 898.051 669.949 898.051 673.949 886.051 673.949ZM902.051 669.949 914.051 669.949 914.051 673.949 902.051 673.949ZM918.051 669.949 930.051 669.949 930.051 673.949 918.051 673.949ZM934.051 669.949 946.051 669.949 946.051 673.949 934.051 673.949ZM950.051 669.949 962.051 669.949 962.051 673.949 950.051 673.949ZM966.051 669.949 978.051 669.949 978.051 673.949 966.051 673.949ZM982.051 669.949 985.619 669.949 985.619 673.949 982.051 673.949ZM983.619 665.949 995.619 671.949 983.619 677.949Z" fill="#B0B9E4"/><path d="M0 0 81.0574 0 81.0574 50.967 81.1142 50.967" stroke="#000000" stroke-width="4" stroke-linejoin="round" stroke-miterlimit="10" fill="none" fill-rule="evenodd" transform="matrix(1 0 0 -1 284 412.967)"/></g></svg>