<?xml version="1.0" encoding="utf-8" standalone="no"?>
<!DOCTYPE svg PUBLIC "-//W3C//DTD SVG 1.1//EN"
  "http://www.w3.org/Graphics/SVG/1.1/DTD/svg11.dtd">
<svg xmlns:xlink="http://www.w3.org/1999/xlink" width="405pt" height="227.7pt" viewBox="0 0 405 227.7" xmlns="http://www.w3.org/2000/svg" version="1.1">
 <metadata>
  <rdf:RDF xmlns:dc="http://purl.org/dc/elements/1.1/" xmlns:cc="http://creativecommons.org/ns#" xmlns:rdf="http://www.w3.org/1999/02/22-rdf-syntax-ns#">
   <cc:Work>
    <dc:type rdf:resource="http://purl.org/dc/dcmitype/StillImage"/>
    <dc:date>2026-04-21T12:03:18.700333</dc:date>
    <dc:format>image/svg+xml</dc:format>
    <dc:creator>
     <cc:Agent>
      <dc:title>Matplotlib v3.10.6, https://matplotlib.org/</dc:title>
     </cc:Agent>
    </dc:creator>
   </cc:Work>
  </rdf:RDF>
 </metadata>
 <defs>
  <style type="text/css">*{stroke-linejoin: round; stroke-linecap: butt}</style>
 </defs>
 <g id="figure_1">
  <g id="patch_1">
   <path d="M 0 227.7 
L 405 227.7 
L 405 0 
L 0 0 
L 0 227.7 
z
" style="fill: none"/>
  </g>
  <g id="axes_1">
   <g id="patch_2">
    <path d="M 44.444 181.42 
L 313.459533 181.42 
L 313.459533 13.7159 
L 44.444 13.7159 
L 44.444 181.42 
z
" style="fill: none"/>
   </g>
   <g id="matplotlib.axis_1">
    <g id="xtick_1">
     <g id="line2d_1">
      <path d="M 44.444 181.42 
L 44.444 13.7159 
" clip-path="url(#p3989ee793b)" style="fill: none; stroke: #b0b0b0; stroke-width: 0.8; stroke-linecap: square"/>
     </g>
     <g id="line2d_2">
      <defs>
       <path id="m82e7d76661" d="M 0 0 
L 0 3.5 
" style="stroke: #000000; stroke-width: 0.8"/>
      </defs>
      <g>
       <use xlink:href="#m82e7d76661" x="44.444" y="181.42" style="stroke: #000000; stroke-width: 0.8"/>
      </g>
     </g>
     <g id="text_1">
      <!-- −10.0 -->
      <g transform="translate(27.589078 196.778281) scale(0.11 -0.11)">
       <defs>
        <path id="DejaVuSans-2212" d="M 678 2272 
L 4684 2272 
L 4684 1741 
L 678 1741 
L 678 2272 
z
" transform="scale(0.015625)"/>
        <path id="DejaVuSans-31" d="M 794 531 
L 1825 531 
L 1825 4091 
L 703 3866 
L 703 4441 
L 1819 4666 
L 2450 4666 
L 2450 531 
L 3481 531 
L 3481 0 
L 794 0 
L 794 531 
z
" transform="scale(0.015625)"/>
        <path id="DejaVuSans-30" d="M 2034 4250 
Q 1547 4250 1301 3770 
Q 1056 3291 1056 2328 
Q 1056 1369 1301 889 
Q 1547 409 2034 409 
Q 2525 409 2770 889 
Q 3016 1369 3016 2328 
Q 3016 3291 2770 3770 
Q 2525 4250 2034 4250 
z
M 2034 4750 
Q 2819 4750 3233 4129 
Q 3647 3509 3647 2328 
Q 3647 1150 3233 529 
Q 2819 -91 2034 -91 
Q 1250 -91 836 529 
Q 422 1150 422 2328 
Q 422 3509 836 4129 
Q 1250 4750 2034 4750 
z
" transform="scale(0.015625)"/>
        <path id="DejaVuSans-2e" d="M 684 794 
L 1344 794 
L 1344 0 
L 684 0 
L 684 794 
z
" transform="scale(0.015625)"/>
       </defs>
       <use xlink:href="#DejaVuSans-2212"/>
       <use xlink:href="#DejaVuSans-31" transform="translate(83.789062 0)"/>
       <use xlink:href="#DejaVuSans-30" transform="translate(147.412109 0)"/>
       <use xlink:href="#DejaVuSans-2e" transform="translate(211.035156 0)"/>
       <use xlink:href="#DejaVuSans-30" transform="translate(242.822266 0)"/>
      </g>
     </g>
    </g>
    <g id="xtick_2">
     <g id="line2d_3">
      <path d="M 78.070942 181.42 
L 78.070942 13.7159 
" clip-path="url(#p3989ee793b)" style="fill: none; stroke: #b0b0b0; stroke-width: 0.8; stroke-linecap: square"/>
     </g>
     <g id="line2d_4">
      <g>
       <use xlink:href="#m82e7d76661" x="78.070942" y="181.42" style="stroke: #000000; stroke-width: 0.8"/>
      </g>
     </g>
     <g id="text_2">
      <!-- −7.5 -->
      <g transform="translate(64.715395 196.778281) scale(0.11 -0.11)">
       <defs>
        <path id="DejaVuSans-37" d="M 525 4666 
L 3525 4666 
L 3525 4397 
L 1831 0 
L 1172 0 
L 2766 4134 
L 525 4134 
L 525 4666 
z
" transform="scale(0.015625)"/>
        <path id="DejaVuSans-35" d="M 691 4666 
L 3169 4666 
L 3169 4134 
L 1269 4134 
L 1269 2991 
Q 1406 3038 1543 3061 
Q 1681 3084 1819 3084 
Q 2600 3084 3056 2656 
Q 3513 2228 3513 1497 
Q 3513 744 3044 326 
Q 2575 -91 1722 -91 
Q 1428 -91 1123 -41 
Q 819 9 494 109 
L 494 744 
Q 775 591 1075 516 
Q 1375 441 1709 441 
Q 2250 441 2565 725 
Q 2881 1009 2881 1497 
Q 2881 1984 2565 2268 
Q 2250 2553 1709 2553 
Q 1456 2553 1204 2497 
Q 953 2441 691 2322 
L 691 4666 
z
" transform="scale(0.015625)"/>
       </defs>
       <use xlink:href="#DejaVuSans-2212"/>
       <use xlink:href="#DejaVuSans-37" transform="translate(83.789062 0)"/>
       <use xlink:href="#DejaVuSans-2e" transform="translate(147.412109 0)"/>
       <use xlink:href="#DejaVuSans-35" transform="translate(179.199219 0)"/>
      </g>
     </g>
    </g>
    <g id="xtick_3">
     <g id="line2d_5">
      <path d="M 111.697883 181.42 
L 111.697883 13.7159 
" clip-path="url(#p3989ee793b)" style="fill: none; stroke: #b0b0b0; stroke-width: 0.8; stroke-linecap: square"/>
     </g>
     <g id="line2d_6">
      <g>
       <use xlink:href="#m82e7d76661" x="111.697883" y="181.42" style="stroke: #000000; stroke-width: 0.8"/>
      </g>
     </g>
     <g id="text_3">
      <!-- −5.0 -->
      <g transform="translate(98.342336 196.778281) scale(0.11 -0.11)">
       <use xlink:href="#DejaVuSans-2212"/>
       <use xlink:href="#DejaVuSans-35" transform="translate(83.789062 0)"/>
       <use xlink:href="#DejaVuSans-2e" transform="translate(147.412109 0)"/>
       <use xlink:href="#DejaVuSans-30" transform="translate(179.199219 0)"/>
      </g>
     </g>
    </g>
    <g id="xtick_4">
     <g id="line2d_7">
      <path d="M 145.324825 181.42 
L 145.324825 13.7159 
" clip-path="url(#p3989ee793b)" style="fill: none; stroke: #b0b0b0; stroke-width: 0.8; stroke-linecap: square"/>
     </g>
     <g id="line2d_8">
      <g>
       <use xlink:href="#m82e7d76661" x="145.324825" y="181.42" style="stroke: #000000; stroke-width: 0.8"/>
      </g>
     </g>
     <g id="text_4">
      <!-- −2.5 -->
      <g transform="translate(131.969278 196.778281) scale(0.11 -0.11)">
       <defs>
        <path id="DejaVuSans-32" d="M 1228 531 
L 3431 531 
L 3431 0 
L 469 0 
L 469 531 
Q 828 903 1448 1529 
Q 2069 2156 2228 2338 
Q 2531 2678 2651 2914 
Q 2772 3150 2772 3378 
Q 2772 3750 2511 3984 
Q 2250 4219 1831 4219 
Q 1534 4219 1204 4116 
Q 875 4013 500 3803 
L 500 4441 
Q 881 4594 1212 4672 
Q 1544 4750 1819 4750 
Q 2544 4750 2975 4387 
Q 3406 4025 3406 3419 
Q 3406 3131 3298 2873 
Q 3191 2616 2906 2266 
Q 2828 2175 2409 1742 
Q 1991 1309 1228 531 
z
" transform="scale(0.015625)"/>
       </defs>
       <use xlink:href="#DejaVuSans-2212"/>
       <use xlink:href="#DejaVuSans-32" transform="translate(83.789062 0)"/>
       <use xlink:href="#DejaVuSans-2e" transform="translate(147.412109 0)"/>
       <use xlink:href="#DejaVuSans-35" transform="translate(179.199219 0)"/>
      </g>
     </g>
    </g>
    <g id="xtick_5">
     <g id="line2d_9">
      <path d="M 178.951767 181.42 
L 178.951767 13.7159 
" clip-path="url(#p3989ee793b)" style="fill: none; stroke: #b0b0b0; stroke-width: 0.8; stroke-linecap: square"/>
     </g>
     <g id="line2d_10">
      <g>
       <use xlink:href="#m82e7d76661" x="178.951767" y="181.42" style="stroke: #000000; stroke-width: 0.8"/>
      </g>
     </g>
     <g id="text_5">
      <!-- 0.0 -->
      <g transform="translate(170.205048 196.778281) scale(0.11 -0.11)">
       <use xlink:href="#DejaVuSans-30"/>
       <use xlink:href="#DejaVuSans-2e" transform="translate(63.623047 0)"/>
       <use xlink:href="#DejaVuSans-30" transform="translate(95.410156 0)"/>
      </g>
     </g>
    </g>
    <g id="xtick_6">
     <g id="line2d_11">
      <path d="M 212.578708 181.42 
L 212.578708 13.7159 
" clip-path="url(#p3989ee793b)" style="fill: none; stroke: #b0b0b0; stroke-width: 0.8; stroke-linecap: square"/>
     </g>
     <g id="line2d_12">
      <g>
       <use xlink:href="#m82e7d76661" x="212.578708" y="181.42" style="stroke: #000000; stroke-width: 0.8"/>
      </g>
     </g>
     <g id="text_6">
      <!-- 2.5 -->
      <g transform="translate(203.83199 196.778281) scale(0.11 -0.11)">
       <use xlink:href="#DejaVuSans-32"/>
       <use xlink:href="#DejaVuSans-2e" transform="translate(63.623047 0)"/>
       <use xlink:href="#DejaVuSans-35" transform="translate(95.410156 0)"/>
      </g>
     </g>
    </g>
    <g id="xtick_7">
     <g id="line2d_13">
      <path d="M 246.20565 181.42 
L 246.20565 13.7159 
" clip-path="url(#p3989ee793b)" style="fill: none; stroke: #b0b0b0; stroke-width: 0.8; stroke-linecap: square"/>
     </g>
     <g id="line2d_14">
      <g>
       <use xlink:href="#m82e7d76661" x="246.20565" y="181.42" style="stroke: #000000; stroke-width: 0.8"/>
      </g>
     </g>
     <g id="text_7">
      <!-- 5.0 -->
      <g transform="translate(237.458931 196.778281) scale(0.11 -0.11)">
       <use xlink:href="#DejaVuSans-35"/>
       <use xlink:href="#DejaVuSans-2e" transform="translate(63.623047 0)"/>
       <use xlink:href="#DejaVuSans-30" transform="translate(95.410156 0)"/>
      </g>
     </g>
    </g>
    <g id="xtick_8">
     <g id="line2d_15">
      <path d="M 279.832592 181.42 
L 279.832592 13.7159 
" clip-path="url(#p3989ee793b)" style="fill: none; stroke: #b0b0b0; stroke-width: 0.8; stroke-linecap: square"/>
     </g>
     <g id="line2d_16">
      <g>
       <use xlink:href="#m82e7d76661" x="279.832592" y="181.42" style="stroke: #000000; stroke-width: 0.8"/>
      </g>
     </g>
     <g id="text_8">
      <!-- 7.5 -->
      <g transform="translate(271.085873 196.778281) scale(0.11 -0.11)">
       <use xlink:href="#DejaVuSans-37"/>
       <use xlink:href="#DejaVuSans-2e" transform="translate(63.623047 0)"/>
       <use xlink:href="#DejaVuSans-35" transform="translate(95.410156 0)"/>
      </g>
     </g>
    </g>
    <g id="xtick_9">
     <g id="line2d_17">
      <path d="M 313.459533 181.42 
L 313.459533 13.7159 
" clip-path="url(#p3989ee793b)" style="fill: none; stroke: #b0b0b0; stroke-width: 0.8; stroke-linecap: square"/>
     </g>
     <g id="line2d_18">
      <g>
       <use xlink:href="#m82e7d76661" x="313.459533" y="181.42" style="stroke: #000000; stroke-width: 0.8"/>
      </g>
     </g>
     <g id="text_9">
      <!-- 10.0 -->
      <g transform="translate(301.213439 196.778281) scale(0.11 -0.11)">
       <use xlink:href="#DejaVuSans-31"/>
       <use xlink:href="#DejaVuSans-30" transform="translate(63.623047 0)"/>
       <use xlink:href="#DejaVuSans-2e" transform="translate(127.246094 0)"/>
       <use xlink:href="#DejaVuSans-30" transform="translate(159.033203 0)"/>
      </g>
     </g>
    </g>
    <g id="text_10">
     <!-- Plume cross section $y[m]$ -->
     <g transform="translate(109.486767 211.425937) scale(0.11 -0.11)">
      <defs>
       <path id="DejaVuSans-50" d="M 1259 4147 
L 1259 2394 
L 2053 2394 
Q 2494 2394 2734 2622 
Q 2975 2850 2975 3272 
Q 2975 3691 2734 3919 
Q 2494 4147 2053 4147 
L 1259 4147 
z
M 628 4666 
L 2053 4666 
Q 2838 4666 3239 4311 
Q 3641 3956 3641 3272 
Q 3641 2581 3239 2228 
Q 2838 1875 2053 1875 
L 1259 1875 
L 1259 0 
L 628 0 
L 628 4666 
z
" transform="scale(0.015625)"/>
       <path id="DejaVuSans-6c" d="M 603 4863 
L 1178 4863 
L 1178 0 
L 603 0 
L 603 4863 
z
" transform="scale(0.015625)"/>
       <path id="DejaVuSans-75" d="M 544 1381 
L 544 3500 
L 1119 3500 
L 1119 1403 
Q 1119 906 1312 657 
Q 1506 409 1894 409 
Q 2359 409 2629 706 
Q 2900 1003 2900 1516 
L 2900 3500 
L 3475 3500 
L 3475 0 
L 2900 0 
L 2900 538 
Q 2691 219 2414 64 
Q 2138 -91 1772 -91 
Q 1169 -91 856 284 
Q 544 659 544 1381 
z
M 1991 3584 
L 1991 3584 
z
" transform="scale(0.015625)"/>
       <path id="DejaVuSans-6d" d="M 3328 2828 
Q 3544 3216 3844 3400 
Q 4144 3584 4550 3584 
Q 5097 3584 5394 3201 
Q 5691 2819 5691 2113 
L 5691 0 
L 5113 0 
L 5113 2094 
Q 5113 2597 4934 2840 
Q 4756 3084 4391 3084 
Q 3944 3084 3684 2787 
Q 3425 2491 3425 1978 
L 3425 0 
L 2847 0 
L 2847 2094 
Q 2847 2600 2669 2842 
Q 2491 3084 2119 3084 
Q 1678 3084 1418 2786 
Q 1159 2488 1159 1978 
L 1159 0 
L 581 0 
L 581 3500 
L 1159 3500 
L 1159 2956 
Q 1356 3278 1631 3431 
Q 1906 3584 2284 3584 
Q 2666 3584 2933 3390 
Q 3200 3197 3328 2828 
z
" transform="scale(0.015625)"/>
       <path id="DejaVuSans-65" d="M 3597 1894 
L 3597 1613 
L 953 1613 
Q 991 1019 1311 708 
Q 1631 397 2203 397 
Q 2534 397 2845 478 
Q 3156 559 3463 722 
L 3463 178 
Q 3153 47 2828 -22 
Q 2503 -91 2169 -91 
Q 1331 -91 842 396 
Q 353 884 353 1716 
Q 353 2575 817 3079 
Q 1281 3584 2069 3584 
Q 2775 3584 3186 3129 
Q 3597 2675 3597 1894 
z
M 3022 2063 
Q 3016 2534 2758 2815 
Q 2500 3097 2075 3097 
Q 1594 3097 1305 2825 
Q 1016 2553 972 2059 
L 3022 2063 
z
" transform="scale(0.015625)"/>
       <path id="DejaVuSans-20" transform="scale(0.015625)"/>
       <path id="DejaVuSans-63" d="M 3122 3366 
L 3122 2828 
Q 2878 2963 2633 3030 
Q 2388 3097 2138 3097 
Q 1578 3097 1268 2742 
Q 959 2388 959 1747 
Q 959 1106 1268 751 
Q 1578 397 2138 397 
Q 2388 397 2633 464 
Q 2878 531 3122 666 
L 3122 134 
Q 2881 22 2623 -34 
Q 2366 -91 2075 -91 
Q 1284 -91 818 406 
Q 353 903 353 1747 
Q 353 2603 823 3093 
Q 1294 3584 2113 3584 
Q 2378 3584 2631 3529 
Q 2884 3475 3122 3366 
z
" transform="scale(0.015625)"/>
       <path id="DejaVuSans-72" d="M 2631 2963 
Q 2534 3019 2420 3045 
Q 2306 3072 2169 3072 
Q 1681 3072 1420 2755 
Q 1159 2438 1159 1844 
L 1159 0 
L 581 0 
L 581 3500 
L 1159 3500 
L 1159 2956 
Q 1341 3275 1631 3429 
Q 1922 3584 2338 3584 
Q 2397 3584 2469 3576 
Q 2541 3569 2628 3553 
L 2631 2963 
z
" transform="scale(0.015625)"/>
       <path id="DejaVuSans-6f" d="M 1959 3097 
Q 1497 3097 1228 2736 
Q 959 2375 959 1747 
Q 959 1119 1226 758 
Q 1494 397 1959 397 
Q 2419 397 2687 759 
Q 2956 1122 2956 1747 
Q 2956 2369 2687 2733 
Q 2419 3097 1959 3097 
z
M 1959 3584 
Q 2709 3584 3137 3096 
Q 3566 2609 3566 1747 
Q 3566 888 3137 398 
Q 2709 -91 1959 -91 
Q 1206 -91 779 398 
Q 353 888 353 1747 
Q 353 2609 779 3096 
Q 1206 3584 1959 3584 
z
" transform="scale(0.015625)"/>
       <path id="DejaVuSans-73" d="M 2834 3397 
L 2834 2853 
Q 2591 2978 2328 3040 
Q 2066 3103 1784 3103 
Q 1356 3103 1142 2972 
Q 928 2841 928 2578 
Q 928 2378 1081 2264 
Q 1234 2150 1697 2047 
L 1894 2003 
Q 2506 1872 2764 1633 
Q 3022 1394 3022 966 
Q 3022 478 2636 193 
Q 2250 -91 1575 -91 
Q 1294 -91 989 -36 
Q 684 19 347 128 
L 347 722 
Q 666 556 975 473 
Q 1284 391 1588 391 
Q 1994 391 2212 530 
Q 2431 669 2431 922 
Q 2431 1156 2273 1281 
Q 2116 1406 1581 1522 
L 1381 1569 
Q 847 1681 609 1914 
Q 372 2147 372 2553 
Q 372 3047 722 3315 
Q 1072 3584 1716 3584 
Q 2034 3584 2315 3537 
Q 2597 3491 2834 3397 
z
" transform="scale(0.015625)"/>
       <path id="DejaVuSans-74" d="M 1172 4494 
L 1172 3500 
L 2356 3500 
L 2356 3053 
L 1172 3053 
L 1172 1153 
Q 1172 725 1289 603 
Q 1406 481 1766 481 
L 2356 481 
L 2356 0 
L 1766 0 
Q 1100 0 847 248 
Q 594 497 594 1153 
L 594 3053 
L 172 3053 
L 172 3500 
L 594 3500 
L 594 4494 
L 1172 4494 
z
" transform="scale(0.015625)"/>
       <path id="DejaVuSans-69" d="M 603 3500 
L 1178 3500 
L 1178 0 
L 603 0 
L 603 3500 
z
M 603 4863 
L 1178 4863 
L 1178 4134 
L 603 4134 
L 603 4863 
z
" transform="scale(0.015625)"/>
       <path id="DejaVuSans-6e" d="M 3513 2113 
L 3513 0 
L 2938 0 
L 2938 2094 
Q 2938 2591 2744 2837 
Q 2550 3084 2163 3084 
Q 1697 3084 1428 2787 
Q 1159 2491 1159 1978 
L 1159 0 
L 581 0 
L 581 3500 
L 1159 3500 
L 1159 2956 
Q 1366 3272 1645 3428 
Q 1925 3584 2291 3584 
Q 2894 3584 3203 3211 
Q 3513 2838 3513 2113 
z
" transform="scale(0.015625)"/>
       <path id="DejaVuSans-Oblique-79" d="M 1588 -325 
Q 1188 -997 936 -1164 
Q 684 -1331 294 -1331 
L -159 -1331 
L -63 -850 
L 269 -850 
Q 509 -850 678 -719 
Q 847 -588 1056 -206 
L 1234 128 
L 459 3500 
L 1069 3500 
L 1650 819 
L 3256 3500 
L 3859 3500 
L 1588 -325 
z
" transform="scale(0.015625)"/>
       <path id="DejaVuSans-5b" d="M 550 4863 
L 1875 4863 
L 1875 4416 
L 1125 4416 
L 1125 -397 
L 1875 -397 
L 1875 -844 
L 550 -844 
L 550 4863 
z
" transform="scale(0.015625)"/>
       <path id="DejaVuSans-Oblique-6d" d="M 5747 2113 
L 5338 0 
L 4763 0 
L 5166 2094 
Q 5191 2228 5203 2325 
Q 5216 2422 5216 2491 
Q 5216 2772 5059 2928 
Q 4903 3084 4622 3084 
Q 4203 3084 3875 2770 
Q 3547 2456 3450 1953 
L 3066 0 
L 2491 0 
L 2900 2094 
Q 2925 2209 2937 2307 
Q 2950 2406 2950 2484 
Q 2950 2769 2794 2926 
Q 2638 3084 2363 3084 
Q 1938 3084 1609 2770 
Q 1281 2456 1184 1953 
L 800 0 
L 225 0 
L 909 3500 
L 1484 3500 
L 1375 2956 
Q 1609 3263 1923 3423 
Q 2238 3584 2597 3584 
Q 2978 3584 3223 3384 
Q 3469 3184 3519 2828 
Q 3781 3197 4126 3390 
Q 4472 3584 4856 3584 
Q 5306 3584 5551 3325 
Q 5797 3066 5797 2591 
Q 5797 2488 5784 2364 
Q 5772 2241 5747 2113 
z
" transform="scale(0.015625)"/>
       <path id="DejaVuSans-5d" d="M 1947 4863 
L 1947 -844 
L 622 -844 
L 622 -397 
L 1369 -397 
L 1369 4416 
L 622 4416 
L 622 4863 
L 1947 4863 
z
" transform="scale(0.015625)"/>
      </defs>
      <use xlink:href="#DejaVuSans-50" transform="translate(0 0.015625)"/>
      <use xlink:href="#DejaVuSans-6c" transform="translate(60.302734 0.015625)"/>
      <use xlink:href="#DejaVuSans-75" transform="translate(88.085938 0.015625)"/>
      <use xlink:href="#DejaVuSans-6d" transform="translate(151.464844 0.015625)"/>
      <use xlink:href="#DejaVuSans-65" transform="translate(248.876953 0.015625)"/>
      <use xlink:href="#DejaVuSans-20" transform="translate(310.400391 0.015625)"/>
      <use xlink:href="#DejaVuSans-63" transform="translate(342.1875 0.015625)"/>
      <use xlink:href="#DejaVuSans-72" transform="translate(397.167969 0.015625)"/>
      <use xlink:href="#DejaVuSans-6f" transform="translate(438.28125 0.015625)"/>
      <use xlink:href="#DejaVuSans-73" transform="translate(499.462891 0.015625)"/>
      <use xlink:href="#DejaVuSans-73" transform="translate(551.5625 0.015625)"/>
      <use xlink:href="#DejaVuSans-20" transform="translate(603.662109 0.015625)"/>
      <use xlink:href="#DejaVuSans-73" transform="translate(635.449219 0.015625)"/>
      <use xlink:href="#DejaVuSans-65" transform="translate(687.548828 0.015625)"/>
      <use xlink:href="#DejaVuSans-63" transform="translate(749.072266 0.015625)"/>
      <use xlink:href="#DejaVuSans-74" transform="translate(804.052734 0.015625)"/>
      <use xlink:href="#DejaVuSans-69" transform="translate(843.261719 0.015625)"/>
      <use xlink:href="#DejaVuSans-6f" transform="translate(871.044922 0.015625)"/>
      <use xlink:href="#DejaVuSans-6e" transform="translate(932.226562 0.015625)"/>
      <use xlink:href="#DejaVuSans-20" transform="translate(995.605469 0.015625)"/>
      <use xlink:href="#DejaVuSans-Oblique-79" transform="translate(1027.392578 0.015625)"/>
      <use xlink:href="#DejaVuSans-5b" transform="translate(1086.572266 0.015625)"/>
      <use xlink:href="#DejaVuSans-Oblique-6d" transform="translate(1125.585938 0.015625)"/>
      <use xlink:href="#DejaVuSans-5d" transform="translate(1222.998047 0.015625)"/>
     </g>
    </g>
   </g>
   <g id="matplotlib.axis_2">
    <g id="ytick_1">
     <g id="line2d_19">
      <path d="M 44.444 181.42 
L 313.459533 181.42 
" clip-path="url(#p3989ee793b)" style="fill: none; stroke: #b0b0b0; stroke-width: 0.8; stroke-linecap: square"/>
     </g>
     <g id="line2d_20">
      <defs>
       <path id="mfaa3890cd1" d="M 0 0 
L -3.5 0 
" style="stroke: #000000; stroke-width: 0.8"/>
      </defs>
      <g>
       <use xlink:href="#mfaa3890cd1" x="44.444" y="181.42" style="stroke: #000000; stroke-width: 0.8"/>
      </g>
     </g>
     <g id="text_11">
      <!-- 0 -->
      <g transform="translate(30.44525 185.599141) scale(0.11 -0.11)">
       <use xlink:href="#DejaVuSans-30"/>
      </g>
     </g>
    </g>
    <g id="ytick_2">
     <g id="line2d_21">
      <path d="M 44.444 144.152422 
L 313.459533 144.152422 
" clip-path="url(#p3989ee793b)" style="fill: none; stroke: #b0b0b0; stroke-width: 0.8; stroke-linecap: square"/>
     </g>
     <g id="line2d_22">
      <g>
       <use xlink:href="#mfaa3890cd1" x="44.444" y="144.152422" style="stroke: #000000; stroke-width: 0.8"/>
      </g>
     </g>
     <g id="text_12">
      <!-- 2 -->
      <g transform="translate(30.44525 148.331563) scale(0.11 -0.11)">
       <use xlink:href="#DejaVuSans-32"/>
      </g>
     </g>
    </g>
    <g id="ytick_3">
     <g id="line2d_23">
      <path d="M 44.444 106.884844 
L 313.459533 106.884844 
" clip-path="url(#p3989ee793b)" style="fill: none; stroke: #b0b0b0; stroke-width: 0.8; stroke-linecap: square"/>
     </g>
     <g id="line2d_24">
      <g>
       <use xlink:href="#mfaa3890cd1" x="44.444" y="106.884844" style="stroke: #000000; stroke-width: 0.8"/>
      </g>
     </g>
     <g id="text_13">
      <!-- 4 -->
      <g transform="translate(30.44525 111.063985) scale(0.11 -0.11)">
       <defs>
        <path id="DejaVuSans-34" d="M 2419 4116 
L 825 1625 
L 2419 1625 
L 2419 4116 
z
M 2253 4666 
L 3047 4666 
L 3047 1625 
L 3713 1625 
L 3713 1100 
L 3047 1100 
L 3047 0 
L 2419 0 
L 2419 1100 
L 313 1100 
L 313 1709 
L 2253 4666 
z
" transform="scale(0.015625)"/>
       </defs>
       <use xlink:href="#DejaVuSans-34"/>
      </g>
     </g>
    </g>
    <g id="ytick_4">
     <g id="line2d_25">
      <path d="M 44.444 69.617267 
L 313.459533 69.617267 
" clip-path="url(#p3989ee793b)" style="fill: none; stroke: #b0b0b0; stroke-width: 0.8; stroke-linecap: square"/>
     </g>
     <g id="line2d_26">
      <g>
       <use xlink:href="#mfaa3890cd1" x="44.444" y="69.617267" style="stroke: #000000; stroke-width: 0.8"/>
      </g>
     </g>
     <g id="text_14">
      <!-- 6 -->
      <g transform="translate(30.44525 73.796407) scale(0.11 -0.11)">
       <defs>
        <path id="DejaVuSans-36" d="M 2113 2584 
Q 1688 2584 1439 2293 
Q 1191 2003 1191 1497 
Q 1191 994 1439 701 
Q 1688 409 2113 409 
Q 2538 409 2786 701 
Q 3034 994 3034 1497 
Q 3034 2003 2786 2293 
Q 2538 2584 2113 2584 
z
M 3366 4563 
L 3366 3988 
Q 3128 4100 2886 4159 
Q 2644 4219 2406 4219 
Q 1781 4219 1451 3797 
Q 1122 3375 1075 2522 
Q 1259 2794 1537 2939 
Q 1816 3084 2150 3084 
Q 2853 3084 3261 2657 
Q 3669 2231 3669 1497 
Q 3669 778 3244 343 
Q 2819 -91 2113 -91 
Q 1303 -91 875 529 
Q 447 1150 447 2328 
Q 447 3434 972 4092 
Q 1497 4750 2381 4750 
Q 2619 4750 2861 4703 
Q 3103 4656 3366 4563 
z
" transform="scale(0.015625)"/>
       </defs>
       <use xlink:href="#DejaVuSans-36"/>
      </g>
     </g>
    </g>
    <g id="ytick_5">
     <g id="line2d_27">
      <path d="M 44.444 32.349689 
L 313.459533 32.349689 
" clip-path="url(#p3989ee793b)" style="fill: none; stroke: #b0b0b0; stroke-width: 0.8; stroke-linecap: square"/>
     </g>
     <g id="line2d_28">
      <g>
       <use xlink:href="#mfaa3890cd1" x="44.444" y="32.349689" style="stroke: #000000; stroke-width: 0.8"/>
      </g>
     </g>
     <g id="text_15">
      <!-- 8 -->
      <g transform="translate(30.44525 36.52883) scale(0.11 -0.11)">
       <defs>
        <path id="DejaVuSans-38" d="M 2034 2216 
Q 1584 2216 1326 1975 
Q 1069 1734 1069 1313 
Q 1069 891 1326 650 
Q 1584 409 2034 409 
Q 2484 409 2743 651 
Q 3003 894 3003 1313 
Q 3003 1734 2745 1975 
Q 2488 2216 2034 2216 
z
M 1403 2484 
Q 997 2584 770 2862 
Q 544 3141 544 3541 
Q 544 4100 942 4425 
Q 1341 4750 2034 4750 
Q 2731 4750 3128 4425 
Q 3525 4100 3525 3541 
Q 3525 3141 3298 2862 
Q 3072 2584 2669 2484 
Q 3125 2378 3379 2068 
Q 3634 1759 3634 1313 
Q 3634 634 3220 271 
Q 2806 -91 2034 -91 
Q 1263 -91 848 271 
Q 434 634 434 1313 
Q 434 1759 690 2068 
Q 947 2378 1403 2484 
z
M 1172 3481 
Q 1172 3119 1398 2916 
Q 1625 2713 2034 2713 
Q 2441 2713 2670 2916 
Q 2900 3119 2900 3481 
Q 2900 3844 2670 4047 
Q 2441 4250 2034 4250 
Q 1625 4250 1398 4047 
Q 1172 3844 1172 3481 
z
" transform="scale(0.015625)"/>
       </defs>
       <use xlink:href="#DejaVuSans-38"/>
      </g>
     </g>
    </g>
    <g id="text_16">
     <!-- Concentration $[g/m^3]$ -->
     <g transform="translate(24.13525 156.08795) rotate(-90) scale(0.11 -0.11)">
      <defs>
       <path id="DejaVuSans-43" d="M 4122 4306 
L 4122 3641 
Q 3803 3938 3442 4084 
Q 3081 4231 2675 4231 
Q 1875 4231 1450 3742 
Q 1025 3253 1025 2328 
Q 1025 1406 1450 917 
Q 1875 428 2675 428 
Q 3081 428 3442 575 
Q 3803 722 4122 1019 
L 4122 359 
Q 3791 134 3420 21 
Q 3050 -91 2638 -91 
Q 1578 -91 968 557 
Q 359 1206 359 2328 
Q 359 3453 968 4101 
Q 1578 4750 2638 4750 
Q 3056 4750 3426 4639 
Q 3797 4528 4122 4306 
z
" transform="scale(0.015625)"/>
       <path id="DejaVuSans-61" d="M 2194 1759 
Q 1497 1759 1228 1600 
Q 959 1441 959 1056 
Q 959 750 1161 570 
Q 1363 391 1709 391 
Q 2188 391 2477 730 
Q 2766 1069 2766 1631 
L 2766 1759 
L 2194 1759 
z
M 3341 1997 
L 3341 0 
L 2766 0 
L 2766 531 
Q 2569 213 2275 61 
Q 1981 -91 1556 -91 
Q 1019 -91 701 211 
Q 384 513 384 1019 
Q 384 1609 779 1909 
Q 1175 2209 1959 2209 
L 2766 2209 
L 2766 2266 
Q 2766 2663 2505 2880 
Q 2244 3097 1772 3097 
Q 1472 3097 1187 3025 
Q 903 2953 641 2809 
L 641 3341 
Q 956 3463 1253 3523 
Q 1550 3584 1831 3584 
Q 2591 3584 2966 3190 
Q 3341 2797 3341 1997 
z
" transform="scale(0.015625)"/>
       <path id="DejaVuSans-Oblique-67" d="M 3816 3500 
L 3219 434 
Q 3047 -456 2561 -893 
Q 2075 -1331 1253 -1331 
Q 950 -1331 690 -1286 
Q 431 -1241 206 -1147 
L 313 -588 
Q 525 -725 762 -790 
Q 1000 -856 1269 -856 
Q 1816 -856 2167 -557 
Q 2519 -259 2631 300 
L 2681 563 
Q 2441 288 2122 144 
Q 1803 0 1434 0 
Q 903 0 598 351 
Q 294 703 294 1319 
Q 294 1803 478 2267 
Q 663 2731 997 3091 
Q 1219 3328 1514 3456 
Q 1809 3584 2131 3584 
Q 2484 3584 2746 3420 
Q 3009 3256 3138 2956 
L 3238 3500 
L 3816 3500 
z
M 2950 2216 
Q 2950 2641 2750 2872 
Q 2550 3103 2181 3103 
Q 1953 3103 1747 3012 
Q 1541 2922 1394 2759 
Q 1156 2491 1023 2127 
Q 891 1763 891 1375 
Q 891 944 1092 712 
Q 1294 481 1672 481 
Q 2219 481 2584 976 
Q 2950 1472 2950 2216 
z
" transform="scale(0.015625)"/>
       <path id="DejaVuSans-2f" d="M 1625 4666 
L 2156 4666 
L 531 -594 
L 0 -594 
L 1625 4666 
z
" transform="scale(0.015625)"/>
       <path id="DejaVuSans-33" d="M 2597 2516 
Q 3050 2419 3304 2112 
Q 3559 1806 3559 1356 
Q 3559 666 3084 287 
Q 2609 -91 1734 -91 
Q 1441 -91 1130 -33 
Q 819 25 488 141 
L 488 750 
Q 750 597 1062 519 
Q 1375 441 1716 441 
Q 2309 441 2620 675 
Q 2931 909 2931 1356 
Q 2931 1769 2642 2001 
Q 2353 2234 1838 2234 
L 1294 2234 
L 1294 2753 
L 1863 2753 
Q 2328 2753 2575 2939 
Q 2822 3125 2822 3475 
Q 2822 3834 2567 4026 
Q 2313 4219 1838 4219 
Q 1578 4219 1281 4162 
Q 984 4106 628 3988 
L 628 4550 
Q 988 4650 1302 4700 
Q 1616 4750 1894 4750 
Q 2613 4750 3031 4423 
Q 3450 4097 3450 3541 
Q 3450 3153 3228 2886 
Q 3006 2619 2597 2516 
z
" transform="scale(0.015625)"/>
      </defs>
      <use xlink:href="#DejaVuSans-43" transform="translate(0 0.765625)"/>
      <use xlink:href="#DejaVuSans-6f" transform="translate(69.824219 0.765625)"/>
      <use xlink:href="#DejaVuSans-6e" transform="translate(131.005859 0.765625)"/>
      <use xlink:href="#DejaVuSans-63" transform="translate(194.384766 0.765625)"/>
      <use xlink:href="#DejaVuSans-65" transform="translate(249.365234 0.765625)"/>
      <use xlink:href="#DejaVuSans-6e" transform="translate(310.888672 0.765625)"/>
      <use xlink:href="#DejaVuSans-74" transform="translate(374.267578 0.765625)"/>
      <use xlink:href="#DejaVuSans-72" transform="translate(413.476562 0.765625)"/>
      <use xlink:href="#DejaVuSans-61" transform="translate(454.589844 0.765625)"/>
      <use xlink:href="#DejaVuSans-74" transform="translate(515.869141 0.765625)"/>
      <use xlink:href="#DejaVuSans-69" transform="translate(555.078125 0.765625)"/>
      <use xlink:href="#DejaVuSans-6f" transform="translate(582.861328 0.765625)"/>
      <use xlink:href="#DejaVuSans-6e" transform="translate(644.042969 0.765625)"/>
      <use xlink:href="#DejaVuSans-20" transform="translate(707.421875 0.765625)"/>
      <use xlink:href="#DejaVuSans-5b" transform="translate(739.208984 0.765625)"/>
      <use xlink:href="#DejaVuSans-Oblique-67" transform="translate(778.222656 0.765625)"/>
      <use xlink:href="#DejaVuSans-2f" transform="translate(841.699219 0.765625)"/>
      <use xlink:href="#DejaVuSans-Oblique-6d" transform="translate(875.390625 0.765625)"/>
      <use xlink:href="#DejaVuSans-33" transform="translate(977.45263 39.046875) scale(0.7)"/>
      <use xlink:href="#DejaVuSans-5d" transform="translate(1024.723138 0.765625)"/>
     </g>
    </g>
   </g>
   <g id="line2d_29">
    <path d="M -1 181.42 
L 71.345553 181.334521 
L 78.070942 181.07375 
L 81.433636 180.75071 
L 84.79633 180.157662 
L 88.159024 179.092441 
L 91.521718 177.216872 
L 94.884412 173.977014 
L 98.247107 168.49735 
L 101.609801 159.498111 
L 104.972495 145.444645 
L 108.335189 125.420572 
L 115.060577 76.393517 
L 118.423272 56.369444 
L 121.785966 42.315978 
L 125.14866 33.31674 
L 128.511354 27.837076 
L 131.874048 24.597217 
L 135.236742 22.721648 
L 138.599437 21.656427 
L 141.962131 21.063379 
L 145.324825 20.740339 
L 152.050213 20.479568 
L 165.50099 20.397711 
L 205.85332 20.479568 
L 212.578708 20.740339 
L 215.941402 21.063379 
L 219.304097 21.656427 
L 222.666791 22.721648 
L 226.029485 24.597217 
L 229.392179 27.837076 
L 232.754873 33.31674 
L 236.117567 42.315978 
L 239.480262 56.369444 
L 242.842956 76.393517 
L 249.568344 125.420572 
L 252.931038 145.444645 
L 256.293732 159.498111 
L 259.656427 168.49735 
L 263.019121 173.977014 
L 266.381815 177.216872 
L 269.744509 179.092441 
L 273.107203 180.157662 
L 276.469897 180.75071 
L 279.832592 181.07375 
L 286.55798 181.334521 
L 300.008757 181.416379 
L 406 181.42 
L 406 181.42 
" clip-path="url(#p3989ee793b)" style="fill: none; stroke-dasharray: 2.5,4.125; stroke-dashoffset: 0; stroke: #00008b; stroke-width: 2.5"/>
   </g>
   <g id="line2d_30">
    <path d="M -1 181.419423 
L 34.355918 181.324285 
L 44.444 181.096874 
L 51.169388 180.736754 
L 57.894777 180.046305 
L 61.257471 179.509126 
L 64.620165 178.796041 
L 67.982859 177.863686 
L 71.345553 176.6635 
L 74.708247 175.143176 
L 78.070942 173.249031 
L 81.433636 170.929327 
L 84.79633 168.138506 
L 88.159024 164.842109 
L 91.521718 161.021962 
L 94.884412 156.681027 
L 98.247107 151.847186 
L 101.609801 146.575216 
L 104.972495 140.946316 
L 111.697883 129.052545 
L 118.423272 117.158794 
L 121.785966 111.529925 
L 125.14866 106.258015 
L 128.511354 101.42428 
L 131.874048 97.083528 
L 135.236742 93.263696 
L 138.599437 89.967832 
L 141.962131 87.1779 
L 145.324825 84.859661 
L 148.687519 82.967898 
L 152.050213 81.451397 
L 155.412907 80.257267 
L 158.775602 79.334384 
L 162.138296 78.635915 
L 165.50099 78.121002 
L 168.863684 77.755746 
L 175.589072 77.375974 
L 182.314461 77.375974 
L 189.039849 77.755746 
L 192.402543 78.121002 
L 195.765237 78.635915 
L 199.127932 79.334384 
L 202.490626 80.257267 
L 205.85332 81.451397 
L 209.216014 82.967898 
L 212.578708 84.859661 
L 215.941402 87.1779 
L 219.304097 89.967832 
L 222.666791 93.263696 
L 226.029485 97.083528 
L 229.392179 101.42428 
L 232.754873 106.258015 
L 236.117567 111.529925 
L 239.480262 117.158794 
L 246.20565 129.052545 
L 252.931038 140.946316 
L 256.293732 146.575216 
L 259.656427 151.847186 
L 263.019121 156.681027 
L 266.381815 161.021962 
L 269.744509 164.842109 
L 273.107203 168.138506 
L 276.469897 170.929327 
L 279.832592 173.249031 
L 283.195286 175.143176 
L 286.55798 176.6635 
L 289.920674 177.863686 
L 293.283368 178.796041 
L 296.646062 179.509126 
L 300.008757 180.046305 
L 306.734145 180.736754 
L 313.459533 181.096874 
L 323.547616 181.324285 
L 340.361087 181.410169 
L 406 181.42 
L 406 181.42 
" clip-path="url(#p3989ee793b)" style="fill: none; stroke-dasharray: 9.25,4; stroke-dashoffset: 0; stroke: #0000cd; stroke-width: 2.5"/>
   </g>
   <g id="line2d_31">
    <path d="M -1 181.0267 
L 10.817058 180.63496 
L 20.905141 180.059539 
L 27.630529 179.501185 
L 34.355918 178.762354 
L 41.081306 177.805208 
L 47.806694 176.591548 
L 54.532082 175.08568 
L 61.257471 173.257861 
L 67.982859 171.088052 
L 74.708247 168.569564 
L 81.433636 165.712142 
L 88.159024 162.543975 
L 94.884412 159.112229 
L 104.972495 153.616706 
L 121.785966 144.24536 
L 128.511354 140.698051 
L 135.236742 137.403262 
L 141.962131 134.441097 
L 148.687519 131.879208 
L 152.050213 130.76578 
L 155.412907 129.771601 
L 158.775602 128.901323 
L 162.138296 128.158824 
L 165.50099 127.547264 
L 168.863684 127.069137 
L 172.226378 126.726318 
L 175.589072 126.520114 
L 178.951767 126.451295 
L 182.314461 126.520114 
L 185.677155 126.726318 
L 189.039849 127.069137 
L 192.402543 127.547264 
L 195.765237 128.158824 
L 199.127932 128.901323 
L 202.490626 129.771601 
L 205.85332 130.76578 
L 212.578708 133.106419 
L 219.304097 135.87606 
L 226.029485 139.013818 
L 232.754873 142.445569 
L 242.842956 147.955383 
L 259.656427 157.31719 
L 266.381815 160.85738 
L 273.107203 164.164393 
L 279.832592 167.181905 
L 286.55798 169.872199 
L 293.283368 172.216477 
L 300.008757 174.213539 
L 306.734145 175.877181 
L 313.459533 177.23277 
L 320.184922 178.31348 
L 326.91031 179.156657 
L 333.635698 179.800634 
L 343.723781 180.472764 
L 353.811863 180.888062 
L 367.26264 181.188653 
L 387.438805 181.362017 
L 406 181.405797 
L 406 181.405797 
" clip-path="url(#p3989ee793b)" style="fill: none; stroke: #4169e1; stroke-width: 2.5; stroke-linecap: square"/>
   </g>
   <g id="line2d_32">
    <path d="M -1 181.42 
L 71.345553 181.355891 
L 74.708247 181.250281 
L 78.070942 181.002234 
L 81.433636 180.463165 
L 84.79633 179.379136 
L 88.159024 177.362054 
L 91.521718 173.88914 
L 94.884412 168.356246 
L 98.247107 160.199821 
L 101.609801 149.073872 
L 104.972495 135.030723 
L 108.335189 118.629261 
L 115.060577 83.17883 
L 118.423272 66.777368 
L 121.785966 52.734219 
L 125.14866 41.60827 
L 128.511354 33.451844 
L 131.874048 27.91895 
L 135.236742 24.446037 
L 138.599437 22.428954 
L 141.962131 21.344925 
L 145.324825 20.805856 
L 148.687519 20.55781 
L 155.412907 20.410593 
L 182.314461 20.3881 
L 205.85332 20.4522 
L 209.216014 20.55781 
L 212.578708 20.805856 
L 215.941402 21.344925 
L 219.304097 22.428954 
L 222.666791 24.446037 
L 226.029485 27.91895 
L 229.392179 33.451844 
L 232.754873 41.60827 
L 236.117567 52.734219 
L 239.480262 66.777368 
L 242.842956 83.17883 
L 249.568344 118.629261 
L 252.931038 135.030723 
L 256.293732 149.073872 
L 259.656427 160.199821 
L 263.019121 168.356246 
L 266.381815 173.88914 
L 269.744509 177.362054 
L 273.107203 179.379136 
L 276.469897 180.463165 
L 279.832592 181.002234 
L 283.195286 181.250281 
L 289.920674 181.397497 
L 316.822227 181.42 
L 406 181.42 
L 406 181.42 
" clip-path="url(#p3989ee793b)" style="fill: none; stroke-dasharray: 2.5,4.125; stroke-dashoffset: 0; stroke: #ffa500; stroke-width: 2.5"/>
   </g>
   <g id="line2d_33">
    <path d="M -1 181.416608 
L 24.267835 181.321373 
L 34.355918 181.109332 
L 41.081306 180.794742 
L 47.806694 180.225072 
L 51.169388 179.799546 
L 54.532082 179.250214 
L 57.894777 178.551042 
L 61.257471 177.673697 
L 64.620165 176.588283 
L 67.982859 175.264372 
L 71.345553 173.672309 
L 74.708247 171.784752 
L 78.070942 169.578382 
L 81.433636 167.035682 
L 84.79633 164.146666 
L 88.159024 160.910408 
L 91.521718 157.336242 
L 94.884412 153.444496 
L 98.247107 149.266648 
L 101.609801 144.844849 
L 108.335189 135.483933 
L 118.423272 121.107896 
L 121.785966 116.494045 
L 125.14866 112.072618 
L 128.511354 107.895398 
L 131.874048 104.004688 
L 135.236742 100.432203 
L 138.599437 97.198631 
L 141.962131 94.313846 
L 145.324825 91.777714 
L 148.687519 89.581395 
L 152.050213 87.709006 
L 155.412907 86.139509 
L 158.775602 84.848698 
L 162.138296 83.81115 
L 165.50099 83.00205 
L 168.863684 82.398808 
L 172.226378 81.982419 
L 175.589072 81.738539 
L 178.951767 81.658254 
L 182.314461 81.738539 
L 185.677155 81.982419 
L 189.039849 82.398808 
L 192.402543 83.00205 
L 195.765237 83.81115 
L 199.127932 84.848698 
L 202.490626 86.139509 
L 205.85332 87.709006 
L 209.216014 89.581395 
L 212.578708 91.777714 
L 215.941402 94.313846 
L 219.304097 97.198631 
L 222.666791 100.432203 
L 226.029485 104.004688 
L 229.392179 107.895398 
L 232.754873 112.072618 
L 236.117567 116.494045 
L 242.842956 125.854642 
L 252.931038 140.230787 
L 256.293732 144.844849 
L 259.656427 149.266648 
L 263.019121 153.444496 
L 266.381815 157.336242 
L 269.744509 160.910408 
L 273.107203 164.146666 
L 276.469897 167.035682 
L 279.832592 169.578382 
L 283.195286 171.784752 
L 286.55798 173.672309 
L 289.920674 175.264372 
L 293.283368 176.588283 
L 296.646062 177.673697 
L 300.008757 178.551042 
L 303.371451 179.250214 
L 306.734145 179.799546 
L 313.459533 180.55005 
L 320.184922 180.976388 
L 330.273004 181.273506 
L 347.086475 181.402259 
L 406 181.419999 
L 406 181.419999 
" clip-path="url(#p3989ee793b)" style="fill: none; stroke-dasharray: 9.25,4; stroke-dashoffset: 0; stroke: #ffcd00; stroke-width: 2.5"/>
   </g>
   <g id="line2d_34">
    <path d="M -1 180.679519 
L 7.454364 180.294543 
L 17.542447 179.618281 
L 24.267835 179.002319 
L 30.993223 178.22575 
L 37.718612 177.26404 
L 44.444 176.09417 
L 51.169388 174.696351 
L 57.894777 173.055889 
L 64.620165 171.165017 
L 71.345553 169.02457 
L 78.070942 166.64528 
L 84.79633 164.048576 
L 94.884412 159.819309 
L 108.335189 153.80333 
L 121.785966 147.788205 
L 128.511354 144.943655 
L 135.236742 142.294469 
L 141.962131 139.901313 
L 148.687519 137.818914 
L 155.412907 136.094521 
L 162.138296 134.766813 
L 168.863684 133.865201 
L 172.226378 133.580738 
L 175.589072 133.40944 
L 178.951767 133.352237 
L 182.314461 133.40944 
L 185.677155 133.580738 
L 189.039849 133.865201 
L 195.765237 134.766813 
L 202.490626 136.094521 
L 209.216014 137.818914 
L 215.941402 139.901313 
L 222.666791 142.294469 
L 229.392179 144.943655 
L 239.480262 149.263641 
L 269.744509 162.678365 
L 276.469897 165.372339 
L 283.195286 167.863697 
L 289.920674 170.125564 
L 296.646062 172.141921 
L 303.371451 173.907119 
L 310.096839 175.424814 
L 316.822227 176.706459 
L 323.547616 177.769531 
L 330.273004 178.63566 
L 336.998392 179.328826 
L 347.086475 180.098205 
L 357.174557 180.613743 
L 370.625334 181.025692 
L 387.438805 181.272833 
L 406 181.375744 
L 406 181.375744 
" clip-path="url(#p3989ee793b)" style="fill: none; stroke: #ffe12c; stroke-width: 2.5; stroke-linecap: square"/>
   </g>
   <g id="line2d_35">
    <path d="M -1 181.42 
L 71.345553 181.365898 
L 74.708247 181.276774 
L 78.070942 181.067447 
L 81.433636 180.612527 
L 84.79633 179.697715 
L 88.159024 177.995498 
L 91.521718 175.064706 
L 94.884412 170.395495 
L 98.247107 163.512285 
L 101.609801 154.123094 
L 104.972495 142.272078 
L 108.335189 128.43088 
L 115.060577 98.514252 
L 118.423272 84.673054 
L 121.785966 72.822038 
L 125.14866 63.432846 
L 128.511354 56.549637 
L 131.874048 51.880426 
L 135.236742 48.949634 
L 138.599437 47.247417 
L 141.962131 46.332605 
L 145.324825 45.877684 
L 148.687519 45.668358 
L 155.412907 45.544122 
L 189.039849 45.525269 
L 205.85332 45.579234 
L 209.216014 45.668358 
L 212.578708 45.877684 
L 215.941402 46.332605 
L 219.304097 47.247417 
L 222.666791 48.949634 
L 226.029485 51.880426 
L 229.392179 56.549637 
L 232.754873 63.432846 
L 236.117567 72.822038 
L 239.480262 84.673054 
L 242.842956 98.514252 
L 249.568344 128.43088 
L 252.931038 142.272078 
L 256.293732 154.123094 
L 259.656427 163.512285 
L 263.019121 170.395495 
L 266.381815 175.064706 
L 269.744509 177.995498 
L 273.107203 179.697715 
L 276.469897 180.612527 
L 279.832592 181.067447 
L 283.195286 181.276774 
L 289.920674 181.40101 
L 323.547616 181.42 
L 406 181.42 
L 406 181.42 
" clip-path="url(#p3989ee793b)" style="fill: none; stroke-dasharray: 2.5,4.125; stroke-dashoffset: 0; stroke: #008000; stroke-width: 2.5"/>
   </g>
   <g id="line2d_36">
    <path d="M -1 181.417087 
L 27.630529 181.294216 
L 37.718612 181.0391 
L 44.444 180.673032 
L 51.169388 180.028624 
L 54.532082 179.556948 
L 57.894777 178.956616 
L 61.257471 178.203298 
L 64.620165 177.271325 
L 67.982859 176.13457 
L 71.345553 174.767571 
L 74.708247 173.146851 
L 78.070942 171.252387 
L 81.433636 169.069139 
L 84.79633 166.588533 
L 88.159024 163.809773 
L 91.521718 160.740873 
L 94.884412 157.399288 
L 98.247107 153.812047 
L 104.972495 146.053552 
L 121.785966 125.672385 
L 125.14866 121.875998 
L 128.511354 118.289296 
L 131.874048 114.948601 
L 135.236742 111.881145 
L 138.599437 109.104691 
L 141.962131 106.627717 
L 145.324825 104.450108 
L 148.687519 102.564275 
L 152.050213 100.956579 
L 155.412907 99.608956 
L 158.775602 98.500622 
L 162.138296 97.609748 
L 165.50099 96.915028 
L 168.863684 96.397063 
L 172.226378 96.039538 
L 175.589072 95.830135 
L 178.951767 95.761199 
L 182.314461 95.830135 
L 185.677155 96.039538 
L 189.039849 96.397063 
L 192.402543 96.915028 
L 195.765237 97.609748 
L 199.127932 98.500622 
L 202.490626 99.608956 
L 205.85332 100.956579 
L 209.216014 102.564275 
L 212.578708 104.450108 
L 215.941402 106.627717 
L 219.304097 109.104691 
L 222.666791 111.881145 
L 226.029485 114.948601 
L 229.392179 118.289296 
L 232.754873 121.875998 
L 239.480262 129.633993 
L 256.293732 150.015341 
L 259.656427 153.812047 
L 263.019121 157.399288 
L 266.381815 160.740873 
L 269.744509 163.809773 
L 273.107203 166.588533 
L 276.469897 169.069139 
L 279.832592 171.252387 
L 283.195286 173.146851 
L 286.55798 174.767571 
L 289.920674 176.13457 
L 293.283368 177.271325 
L 296.646062 178.203298 
L 300.008757 178.956616 
L 303.371451 179.556948 
L 310.096839 180.393994 
L 316.822227 180.883133 
L 323.547616 181.15325 
L 333.635698 181.335315 
L 353.811863 181.414038 
L 406 181.419999 
L 406 181.419999 
" clip-path="url(#p3989ee793b)" style="fill: none; stroke-dasharray: 9.25,4; stroke-dashoffset: 0; stroke: #15a12a; stroke-width: 2.5"/>
   </g>
   <g id="line2d_37">
    <path d="M -1 180.755755 
L 7.454364 180.410413 
L 17.542447 179.803775 
L 27.630529 178.922319 
L 34.355918 178.145361 
L 41.081306 177.191736 
L 47.806694 176.042042 
L 54.532082 174.6806 
L 61.257471 173.097135 
L 67.982859 171.28837 
L 74.708247 169.259371 
L 81.433636 167.024509 
L 88.159024 164.60789 
L 98.247107 160.71825 
L 128.511354 148.699037 
L 135.236742 146.322595 
L 141.962131 144.175824 
L 148.687519 142.307816 
L 155.412907 140.760956 
L 162.138296 139.569941 
L 168.863684 138.761154 
L 175.589072 138.352315 
L 182.314461 138.352315 
L 189.039849 138.761154 
L 195.765237 139.569941 
L 202.490626 140.760956 
L 209.216014 142.307816 
L 215.941402 144.175824 
L 222.666791 146.322595 
L 229.392179 148.699037 
L 239.480262 152.574264 
L 269.744509 164.60789 
L 276.469897 167.024509 
L 283.195286 169.259371 
L 289.920674 171.28837 
L 296.646062 173.097135 
L 303.371451 174.6806 
L 310.096839 176.042042 
L 316.822227 177.191736 
L 323.547616 178.145361 
L 330.273004 178.922319 
L 340.361087 179.803775 
L 350.449169 180.410413 
L 360.537252 180.811509 
L 373.988028 181.127184 
L 394.164193 181.333519 
L 406 181.3803 
L 406 181.3803 
" clip-path="url(#p3989ee793b)" style="fill: none; stroke: #9acd32; stroke-width: 2.5; stroke-linecap: square"/>
   </g>
   <g id="patch_3">
    <path d="M 44.444 181.42 
L 44.444 13.7159 
" style="fill: none; stroke: #000000; stroke-width: 0.8; stroke-linejoin: miter; stroke-linecap: square"/>
   </g>
   <g id="patch_4">
    <path d="M 313.459533 181.42 
L 313.459533 13.7159 
" style="fill: none; stroke: #000000; stroke-width: 0.8; stroke-linejoin: miter; stroke-linecap: square"/>
   </g>
   <g id="patch_5">
    <path d="M 44.444 181.42 
L 313.459533 181.42 
" style="fill: none; stroke: #000000; stroke-width: 0.8; stroke-linejoin: miter; stroke-linecap: square"/>
   </g>
   <g id="patch_6">
    <path d="M 44.444 13.7159 
L 313.459533 13.7159 
" style="fill: none; stroke: #000000; stroke-width: 0.8; stroke-linejoin: miter; stroke-linecap: square"/>
   </g>
   <g id="legend_1">
    <g id="patch_7">
     <path d="M 285.487514 159.64959 
L 397.487514 159.64959 
Q 399.487514 159.64959 399.487514 157.64959 
L 399.487514 26.546465 
Q 399.487514 24.546465 397.487514 24.546465 
L 285.487514 24.546465 
Q 283.487514 24.546465 283.487514 26.546465 
L 283.487514 157.64959 
Q 283.487514 159.64959 285.487514 159.64959 
z
" style="fill: #ffffff; opacity: 0.8; stroke: #cccccc; stroke-linejoin: miter"/>
    </g>
    <g id="line2d_38">
     <path d="M 287.487514 32.644903 
L 297.487514 32.644903 
L 307.487514 32.644903 
" style="fill: none; stroke-dasharray: 2.5,4.125; stroke-dashoffset: 0; stroke: #00008b; stroke-width: 2.5"/>
    </g>
    <g id="text_17">
     <!-- $t_1, x_1$, Mibitrans -->
     <g transform="translate(315.487514 36.144903) scale(0.1 -0.1)">
      <defs>
       <path id="DejaVuSans-Oblique-74" d="M 2706 3500 
L 2619 3053 
L 1472 3053 
L 1100 1153 
Q 1081 1047 1072 975 
Q 1063 903 1063 863 
Q 1063 663 1183 572 
Q 1303 481 1569 481 
L 2150 481 
L 2053 0 
L 1503 0 
Q 991 0 739 200 
Q 488 400 488 806 
Q 488 878 497 964 
Q 506 1050 525 1153 
L 897 3053 
L 409 3053 
L 500 3500 
L 978 3500 
L 1172 4494 
L 1747 4494 
L 1556 3500 
L 2706 3500 
z
" transform="scale(0.015625)"/>
       <path id="DejaVuSans-2c" d="M 750 794 
L 1409 794 
L 1409 256 
L 897 -744 
L 494 -744 
L 750 256 
L 750 794 
z
" transform="scale(0.015625)"/>
       <path id="DejaVuSans-Oblique-78" d="M 3841 3500 
L 2234 1784 
L 3219 0 
L 2559 0 
L 1819 1388 
L 531 0 
L -166 0 
L 1556 1844 
L 641 3500 
L 1300 3500 
L 1972 2234 
L 3144 3500 
L 3841 3500 
z
" transform="scale(0.015625)"/>
       <path id="DejaVuSans-4d" d="M 628 4666 
L 1569 4666 
L 2759 1491 
L 3956 4666 
L 4897 4666 
L 4897 0 
L 4281 0 
L 4281 4097 
L 3078 897 
L 2444 897 
L 1241 4097 
L 1241 0 
L 628 0 
L 628 4666 
z
" transform="scale(0.015625)"/>
       <path id="DejaVuSans-62" d="M 3116 1747 
Q 3116 2381 2855 2742 
Q 2594 3103 2138 3103 
Q 1681 3103 1420 2742 
Q 1159 2381 1159 1747 
Q 1159 1113 1420 752 
Q 1681 391 2138 391 
Q 2594 391 2855 752 
Q 3116 1113 3116 1747 
z
M 1159 2969 
Q 1341 3281 1617 3432 
Q 1894 3584 2278 3584 
Q 2916 3584 3314 3078 
Q 3713 2572 3713 1747 
Q 3713 922 3314 415 
Q 2916 -91 2278 -91 
Q 1894 -91 1617 61 
Q 1341 213 1159 525 
L 1159 0 
L 581 0 
L 581 4863 
L 1159 4863 
L 1159 2969 
z
" transform="scale(0.015625)"/>
      </defs>
      <use xlink:href="#DejaVuSans-Oblique-74" transform="translate(0 0.015625)"/>
      <use xlink:href="#DejaVuSans-31" transform="translate(39.208984 -16.390625) scale(0.7)"/>
      <use xlink:href="#DejaVuSans-2c" transform="translate(86.479492 0.015625)"/>
      <use xlink:href="#DejaVuSans-Oblique-78" transform="translate(137.749023 0.015625)"/>
      <use xlink:href="#DejaVuSans-31" transform="translate(196.928711 -16.390625) scale(0.7)"/>
      <use xlink:href="#DejaVuSans-2c" transform="translate(244.199219 0.015625)"/>
      <use xlink:href="#DejaVuSans-20" transform="translate(275.986328 0.015625)"/>
      <use xlink:href="#DejaVuSans-4d" transform="translate(307.773438 0.015625)"/>
      <use xlink:href="#DejaVuSans-69" transform="translate(394.052734 0.015625)"/>
      <use xlink:href="#DejaVuSans-62" transform="translate(421.835938 0.015625)"/>
      <use xlink:href="#DejaVuSans-69" transform="translate(485.3125 0.015625)"/>
      <use xlink:href="#DejaVuSans-74" transform="translate(513.095703 0.015625)"/>
      <use xlink:href="#DejaVuSans-72" transform="translate(552.304688 0.015625)"/>
      <use xlink:href="#DejaVuSans-61" transform="translate(593.417969 0.015625)"/>
      <use xlink:href="#DejaVuSans-6e" transform="translate(654.697266 0.015625)"/>
      <use xlink:href="#DejaVuSans-73" transform="translate(718.076172 0.015625)"/>
     </g>
    </g>
    <g id="line2d_39">
     <path d="M 287.487514 47.323028 
L 297.487514 47.323028 
L 307.487514 47.323028 
" style="fill: none; stroke-dasharray: 9.25,4; stroke-dashoffset: 0; stroke: #0000cd; stroke-width: 2.5"/>
    </g>
    <g id="text_18">
     <!-- $t_2, x_2$ -->
     <g transform="translate(315.487514 50.823028) scale(0.1 -0.1)">
      <use xlink:href="#DejaVuSans-Oblique-74" transform="translate(0 0.78125)"/>
      <use xlink:href="#DejaVuSans-32" transform="translate(39.208984 -15.625) scale(0.7)"/>
      <use xlink:href="#DejaVuSans-2c" transform="translate(86.479492 0.78125)"/>
      <use xlink:href="#DejaVuSans-Oblique-78" transform="translate(137.749023 0.78125)"/>
      <use xlink:href="#DejaVuSans-32" transform="translate(196.928711 -15.625) scale(0.7)"/>
     </g>
    </g>
    <g id="line2d_40">
     <path d="M 287.487514 62.001152 
L 297.487514 62.001152 
L 307.487514 62.001152 
" style="fill: none; stroke: #4169e1; stroke-width: 2.5; stroke-linecap: square"/>
    </g>
    <g id="text_19">
     <!-- $t_3, x_3$ -->
     <g transform="translate(315.487514 65.501152) scale(0.1 -0.1)">
      <use xlink:href="#DejaVuSans-Oblique-74" transform="translate(0 0.78125)"/>
      <use xlink:href="#DejaVuSans-33" transform="translate(39.208984 -15.625) scale(0.7)"/>
      <use xlink:href="#DejaVuSans-2c" transform="translate(86.479492 0.78125)"/>
      <use xlink:href="#DejaVuSans-Oblique-78" transform="translate(137.749023 0.78125)"/>
      <use xlink:href="#DejaVuSans-33" transform="translate(196.928711 -15.625) scale(0.7)"/>
     </g>
    </g>
    <g id="line2d_41">
     <path d="M 287.487514 76.679278 
L 297.487514 76.679278 
L 307.487514 76.679278 
" style="fill: none; stroke-dasharray: 2.5,4.125; stroke-dashoffset: 0; stroke: #ffa500; stroke-width: 2.5"/>
    </g>
    <g id="text_20">
     <!-- $t_1, x_1$, Anatrans -->
     <g transform="translate(315.487514 80.179278) scale(0.1 -0.1)">
      <defs>
       <path id="DejaVuSans-41" d="M 2188 4044 
L 1331 1722 
L 3047 1722 
L 2188 4044 
z
M 1831 4666 
L 2547 4666 
L 4325 0 
L 3669 0 
L 3244 1197 
L 1141 1197 
L 716 0 
L 50 0 
L 1831 4666 
z
" transform="scale(0.015625)"/>
      </defs>
      <use xlink:href="#DejaVuSans-Oblique-74" transform="translate(0 0.09375)"/>
      <use xlink:href="#DejaVuSans-31" transform="translate(39.208984 -16.3125) scale(0.7)"/>
      <use xlink:href="#DejaVuSans-2c" transform="translate(86.479492 0.09375)"/>
      <use xlink:href="#DejaVuSans-Oblique-78" transform="translate(137.749023 0.09375)"/>
      <use xlink:href="#DejaVuSans-31" transform="translate(196.928711 -16.3125) scale(0.7)"/>
      <use xlink:href="#DejaVuSans-2c" transform="translate(244.199219 0.09375)"/>
      <use xlink:href="#DejaVuSans-20" transform="translate(275.986328 0.09375)"/>
      <use xlink:href="#DejaVuSans-41" transform="translate(307.773438 0.09375)"/>
      <use xlink:href="#DejaVuSans-6e" transform="translate(376.181641 0.09375)"/>
      <use xlink:href="#DejaVuSans-61" transform="translate(439.560547 0.09375)"/>
      <use xlink:href="#DejaVuSans-74" transform="translate(500.839844 0.09375)"/>
      <use xlink:href="#DejaVuSans-72" transform="translate(540.048828 0.09375)"/>
      <use xlink:href="#DejaVuSans-61" transform="translate(581.162109 0.09375)"/>
      <use xlink:href="#DejaVuSans-6e" transform="translate(642.441406 0.09375)"/>
      <use xlink:href="#DejaVuSans-73" transform="translate(705.820312 0.09375)"/>
     </g>
    </g>
    <g id="line2d_42">
     <path d="M 287.487514 91.357403 
L 297.487514 91.357403 
L 307.487514 91.357403 
" style="fill: none; stroke-dasharray: 9.25,4; stroke-dashoffset: 0; stroke: #ffcd00; stroke-width: 2.5"/>
    </g>
    <g id="text_21">
     <!-- $t_2, x_2$ -->
     <g transform="translate(315.487514 94.857403) scale(0.1 -0.1)">
      <use xlink:href="#DejaVuSans-Oblique-74" transform="translate(0 0.78125)"/>
      <use xlink:href="#DejaVuSans-32" transform="translate(39.208984 -15.625) scale(0.7)"/>
      <use xlink:href="#DejaVuSans-2c" transform="translate(86.479492 0.78125)"/>
      <use xlink:href="#DejaVuSans-Oblique-78" transform="translate(137.749023 0.78125)"/>
      <use xlink:href="#DejaVuSans-32" transform="translate(196.928711 -15.625) scale(0.7)"/>
     </g>
    </g>
    <g id="line2d_43">
     <path d="M 287.487514 106.035528 
L 297.487514 106.035528 
L 307.487514 106.035528 
" style="fill: none; stroke: #ffe12c; stroke-width: 2.5; stroke-linecap: square"/>
    </g>
    <g id="text_22">
     <!-- $t_3, x_3$ -->
     <g transform="translate(315.487514 109.535528) scale(0.1 -0.1)">
      <use xlink:href="#DejaVuSans-Oblique-74" transform="translate(0 0.78125)"/>
      <use xlink:href="#DejaVuSans-33" transform="translate(39.208984 -15.625) scale(0.7)"/>
      <use xlink:href="#DejaVuSans-2c" transform="translate(86.479492 0.78125)"/>
      <use xlink:href="#DejaVuSans-Oblique-78" transform="translate(137.749023 0.78125)"/>
      <use xlink:href="#DejaVuSans-33" transform="translate(196.928711 -15.625) scale(0.7)"/>
     </g>
    </g>
    <g id="line2d_44">
     <path d="M 287.487514 120.713652 
L 297.487514 120.713652 
L 307.487514 120.713652 
" style="fill: none; stroke-dasharray: 2.5,4.125; stroke-dashoffset: 0; stroke: #008000; stroke-width: 2.5"/>
    </g>
    <g id="text_23">
     <!-- $t_1, x_1$, Bioscreen -->
     <g transform="translate(315.487514 124.213652) scale(0.1 -0.1)">
      <defs>
       <path id="DejaVuSans-42" d="M 1259 2228 
L 1259 519 
L 2272 519 
Q 2781 519 3026 730 
Q 3272 941 3272 1375 
Q 3272 1813 3026 2020 
Q 2781 2228 2272 2228 
L 1259 2228 
z
M 1259 4147 
L 1259 2741 
L 2194 2741 
Q 2656 2741 2882 2914 
Q 3109 3088 3109 3444 
Q 3109 3797 2882 3972 
Q 2656 4147 2194 4147 
L 1259 4147 
z
M 628 4666 
L 2241 4666 
Q 2963 4666 3353 4366 
Q 3744 4066 3744 3513 
Q 3744 3084 3544 2831 
Q 3344 2578 2956 2516 
Q 3422 2416 3680 2098 
Q 3938 1781 3938 1306 
Q 3938 681 3513 340 
Q 3088 0 2303 0 
L 628 0 
L 628 4666 
z
" transform="scale(0.015625)"/>
      </defs>
      <use xlink:href="#DejaVuSans-Oblique-74" transform="translate(0 0.015625)"/>
      <use xlink:href="#DejaVuSans-31" transform="translate(39.208984 -16.390625) scale(0.7)"/>
      <use xlink:href="#DejaVuSans-2c" transform="translate(86.479492 0.015625)"/>
      <use xlink:href="#DejaVuSans-Oblique-78" transform="translate(137.749023 0.015625)"/>
      <use xlink:href="#DejaVuSans-31" transform="translate(196.928711 -16.390625) scale(0.7)"/>
      <use xlink:href="#DejaVuSans-2c" transform="translate(244.199219 0.015625)"/>
      <use xlink:href="#DejaVuSans-20" transform="translate(275.986328 0.015625)"/>
      <use xlink:href="#DejaVuSans-42" transform="translate(307.773438 0.015625)"/>
      <use xlink:href="#DejaVuSans-69" transform="translate(376.376953 0.015625)"/>
      <use xlink:href="#DejaVuSans-6f" transform="translate(404.160156 0.015625)"/>
      <use xlink:href="#DejaVuSans-73" transform="translate(465.341797 0.015625)"/>
      <use xlink:href="#DejaVuSans-63" transform="translate(517.441406 0.015625)"/>
      <use xlink:href="#DejaVuSans-72" transform="translate(572.421875 0.015625)"/>
      <use xlink:href="#DejaVuSans-65" transform="translate(613.535156 0.015625)"/>
      <use xlink:href="#DejaVuSans-65" transform="translate(675.058594 0.015625)"/>
      <use xlink:href="#DejaVuSans-6e" transform="translate(736.582031 0.015625)"/>
     </g>
    </g>
    <g id="line2d_45">
     <path d="M 287.487514 135.391777 
L 297.487514 135.391777 
L 307.487514 135.391777 
" style="fill: none; stroke-dasharray: 9.25,4; stroke-dashoffset: 0; stroke: #15a12a; stroke-width: 2.5"/>
    </g>
    <g id="text_24">
     <!-- $t_2, x_2$ -->
     <g transform="translate(315.487514 138.891777) scale(0.1 -0.1)">
      <use xlink:href="#DejaVuSans-Oblique-74" transform="translate(0 0.78125)"/>
      <use xlink:href="#DejaVuSans-32" transform="translate(39.208984 -15.625) scale(0.7)"/>
      <use xlink:href="#DejaVuSans-2c" transform="translate(86.479492 0.78125)"/>
      <use xlink:href="#DejaVuSans-Oblique-78" transform="translate(137.749023 0.78125)"/>
      <use xlink:href="#DejaVuSans-32" transform="translate(196.928711 -15.625) scale(0.7)"/>
     </g>
    </g>
    <g id="line2d_46">
     <path d="M 287.487514 150.069902 
L 297.487514 150.069902 
L 307.487514 150.069902 
" style="fill: none; stroke: #9acd32; stroke-width: 2.5; stroke-linecap: square"/>
    </g>
    <g id="text_25">
     <!-- $t_3, x_3$ -->
     <g transform="translate(315.487514 153.569902) scale(0.1 -0.1)">
      <use xlink:href="#DejaVuSans-Oblique-74" transform="translate(0 0.78125)"/>
      <use xlink:href="#DejaVuSans-33" transform="translate(39.208984 -15.625) scale(0.7)"/>
      <use xlink:href="#DejaVuSans-2c" transform="translate(86.479492 0.78125)"/>
      <use xlink:href="#DejaVuSans-Oblique-78" transform="translate(137.749023 0.78125)"/>
      <use xlink:href="#DejaVuSans-33" transform="translate(196.928711 -15.625) scale(0.7)"/>
     </g>
    </g>
   </g>
  </g>
 </g>
 <defs>
  <clipPath id="p3989ee793b">
   <rect x="44.444" y="13.7159" width="269.015533" height="167.7041"/>
  </clipPath>
 </defs>
</svg>
